<?xml version="1.0" standalone="no"?>
<!DOCTYPE svg PUBLIC "-//W3C//DTD SVG 1.1//EN" "http://www.w3.org/Graphics/SVG/1.1/DTD/svg11.dtd" >
<svg xmlns="http://www.w3.org/2000/svg">
<metadata>Generated by IcoMoon</metadata>
<defs>
<font id="qs-outline-icons" horiz-adv-x="1024">
<font-face units-per-em="1024" ascent="960" descent="-64" />
<missing-glyph horiz-adv-x="1024" />
<glyph unicode="&#x20;" horiz-adv-x="512" d="" />
<glyph unicode="&#xe900;" glyph-name="icon-tester-badge" d="M430.81 287.392c4.514 0 8.895-1.991 11.882-5.642l30.268-37.437 41.021 24.692c4.779 2.854 10.753 2.854 15.665 0l40.955-24.692 30.334 37.437c3.518 4.315 9.226 6.439 14.669 5.377l46.929-8.961 15.798 45.933c1.925 5.244 6.439 9.027 11.948 10.023l47.194 7.833-0.531 48.854c-0.066 5.509 2.854 10.62 7.7 13.342l41.818 23.896-16.926 45.8c-1.991 5.177-0.929 10.886 2.655 15.068l31.33 37.105-31.33 37.038c-3.584 4.248-4.646 10.023-2.655 15.2l16.926 45.667-41.818 23.962c-4.846 2.721-7.766 7.833-7.7 13.342l0.531 48.854-47.194 7.766c-5.509 0.996-10.023 4.846-11.948 10.089l-15.798 45.933-46.929-9.027c-5.576-0.929-11.151 1.128-14.669 5.443l-30.334 37.503-40.955-24.692c-4.912-2.921-10.886-2.921-15.665 0l-41.021 24.692-30.268-37.503c-3.584-4.315-9.226-6.372-14.736-5.443l-46.929 9.027-15.864-45.933c-1.859-5.244-6.372-9.094-11.882-10.089l-47.194-7.766 0.531-48.854c0.066-5.509-2.854-10.62-7.633-13.342l-41.884-23.962 16.993-45.667c1.925-5.177 0.863-10.952-2.589-15.2l-31.396-37.038 31.396-37.105c3.452-4.182 4.514-9.89 2.589-15.068l-16.993-45.8 41.884-23.896c4.779-2.721 7.7-7.833 7.633-13.342l-0.531-48.854 47.194-7.833c5.509-0.996 10.023-4.779 11.882-10.023l15.864-45.933 46.929 8.961c0.929 0.199 1.925 0.266 2.854 0.266zM574.119 209.2c-2.655 0-5.377 0.73-7.766 2.124l-44.539 26.816-44.539-26.816c-6.505-3.85-14.868-2.39-19.714 3.518l-32.923 40.756-50.779-9.757c-7.501-1.328-14.736 2.854-17.258 9.957l-17.192 49.783-51.11 8.563c-7.501 1.195-12.877 7.7-12.744 15.2l0.531 52.903-45.269 25.821c-6.439 3.717-9.293 11.483-6.704 18.519l18.386 49.517-33.985 40.092c-4.779 5.642-4.779 13.939 0 19.581l33.985 40.158-18.386 49.584c-2.589 6.903 0.266 14.736 6.704 18.453l45.269 25.887-0.531 52.836c-0.133 7.501 5.244 14.006 12.744 15.2l51.11 8.563 17.192 49.783c2.522 7.102 9.757 11.35 17.258 9.89l50.779-9.691 32.923 40.756c4.846 5.908 13.209 7.434 19.714 3.452l44.539-26.75 44.539 26.75c6.505 3.983 14.868 2.456 19.648-3.452l32.857-40.756 50.911 9.691c7.434 1.46 14.669-2.788 17.125-9.89l17.258-49.783 51.243-8.563c7.301-1.195 12.744-7.7 12.612-15.2l-0.531-52.836 45.336-25.887c6.439-3.717 9.293-11.55 6.638-18.453l-18.386-49.584 33.919-40.158c4.779-5.642 4.779-13.939 0-19.581l-33.919-40.092 18.386-49.517c2.655-7.036-0.199-14.802-6.638-18.519l-45.336-25.821 0.531-52.903c0.133-7.501-5.31-14.006-12.612-15.2l-51.243-8.563-17.258-49.783c-2.456-7.102-9.691-11.35-17.125-9.957l-50.911 9.757-32.857-40.756c-2.987-3.651-7.368-5.642-11.882-5.642zM621.519 255.047v-170.324l-90.937 64.784c-2.589 1.859-5.708 2.854-8.762 2.854-3.12 0-6.239-0.996-8.895-2.854l-90.87-64.784v170.324l-30.401-5.775v-194.087c0-5.708 3.252-10.886 8.297-13.541 4.978-2.589 11.151-2.124 15.731 1.195l106.137 75.604 106.071-75.604c2.655-1.925 5.708-2.854 8.828-2.854 2.39 0 4.713 0.597 6.97 1.659 5.045 2.655 8.231 7.833 8.231 13.541v194.087l-30.401 5.775zM521.82 704.712c-98.504 0-178.687-80.184-178.687-178.687 0-98.57 80.184-178.687 178.687-178.687s178.621 80.117 178.621 178.687c0 98.504-80.117 178.687-178.621 178.687zM521.82 316.87c-115.297 0-209.088 93.791-209.088 209.154 0 115.297 93.791 209.088 209.088 209.088 115.231 0 209.088-93.791 209.088-209.088 0-115.363-93.857-209.154-209.088-209.154zM521.76 465.781c5.377 0 10.753-1.261 15.665-3.85l42.349-22.236c1.195-0.597 2.257-0.531 3.385 0.199 1.062 0.797 1.46 1.859 1.261 3.186l-8.098 47.128c-1.792 10.886 1.792 22.037 9.691 29.737l34.184 33.388c0.996 0.929 1.261 2.058 0.863 3.252-0.398 1.328-1.261 1.991-2.589 2.19l-47.327 6.903c-10.952 1.593-20.378 8.496-25.356 18.386l-21.108 42.88c-1.195 2.39-4.58 2.39-5.708 0l-23.697-47.991c-3.319-6.704-9.757-11.35-17.192-12.413l-52.969-7.766c-1.328-0.199-2.124-0.863-2.589-2.19-0.398-1.195-0.133-2.323 0.863-3.319l34.184-33.321c7.899-7.7 11.55-18.851 9.691-29.737l-8.032-47.128c-0.266-1.328 0.199-2.39 1.195-3.186 1.128-0.73 2.19-0.797 3.385-0.199l42.415 22.236c4.846 2.589 10.222 3.85 15.532 3.85zM581.234 408.896c-5.31 0-10.687 1.261-15.599 3.85l-42.349 22.303c-0.929 0.465-2.058 0.465-2.921 0l-42.415-22.303c-11.35-5.974-24.891-4.978-35.379 2.589-10.421 7.567-15.532 20.179-13.408 32.857l8.164 47.128c0.133 1.062-0.133 2.19-0.929 2.854l-34.317 33.388c-9.16 8.961-12.479 22.17-8.496 34.45 4.049 12.213 14.404 21.042 27.215 22.834l48.986 7.169 21.904 44.406c5.708 11.55 17.258 18.718 30.069 18.718 12.877 0 24.427-7.169 30.135-18.718l21.174-42.88c0.465-0.929 1.46-1.659 2.456-1.792l47.327-6.903c12.744-1.792 23.166-10.62 27.148-22.834 3.916-12.28 0.664-25.489-8.563-34.45l-34.184-33.388c-0.797-0.664-1.128-1.792-0.996-2.854l8.164-47.128c2.19-12.678-2.987-25.29-13.408-32.857-5.908-4.248-12.811-6.439-19.78-6.439z" />
<glyph unicode="&#xe901;" glyph-name="icon-keep-it-home" d="M667.202 440.812v40.081h40.081v-40.081h-40.081zM602.098 440.812v40.081h40.026v-40.081h-40.026zM602.098 505.972v40.026h40.026v-40.026h-40.026zM667.257 505.972v40.026h40.081v-40.026h-40.081zM719.822 571.131h-130.318c-6.954 0-12.484-5.585-12.484-12.539v-130.318c0-6.899 5.53-12.539 12.484-12.539h130.318c6.954 0 12.539 5.64 12.539 12.539v130.318c0 6.954-5.585 12.539-12.539 12.539zM678.12 257.283c7.118 0 12.868 5.749 12.868 12.868s-5.749 12.922-12.868 12.922c-7.173 0-12.868-5.804-12.868-12.922s5.695-12.868 12.868-12.868zM352.631 251.303v19.931h76.439v-19.931h-76.439zM352.631 163.859v62.367h76.439v-62.367h-76.439zM376.286 377.351c5.092 5.092 11.827 7.721 18.617 7.721 6.844 0 13.579-2.628 18.672-7.721 5.038-4.983 7.83-11.663 7.83-18.726s-2.793-13.634-7.83-18.617v-0.055c-6.023-6.023-29.787-12.21-53.113-15.77 3.559 23.326 9.692 47.035 15.824 53.168zM251.115 251.303v19.931h76.439v-19.931h-76.439zM251.115 163.859v62.367h76.439v-62.367h-76.439zM266.556 339.953c-10.404 10.294-10.404 27.049 0 37.398 5.147 5.092 11.882 7.721 18.672 7.721s13.525-2.628 18.617-7.721c6.078-6.078 12.21-29.787 15.824-53.168-23.381 3.559-47.090 9.746-53.113 15.77zM454.258 308.030h-50.813c11.553 3.559 21.902 8.213 27.925 14.236 9.692 9.692 15.058 22.614 15.058 36.358s-5.366 26.721-15.058 36.467c-20.15 20.041-52.73 20.041-72.88 0-8.651-8.651-14.455-26.502-18.398-43.695-3.997 17.193-9.856 35.044-18.453 43.695-20.15 20.041-52.784 20.041-72.88 0-20.095-20.095-20.041-52.784 0.055-72.825 5.914-6.023 16.317-10.677 27.871-14.236h-50.813c-6.899 0-12.539-5.695-12.539-12.594v-56.727c0-6.954 5.64-12.484 12.539-12.484h0.164v-74.906c0-6.954 5.585-12.594 12.539-12.594h202.979c6.954 0 12.594 5.64 12.594 12.594v74.906h0.11c6.899 0 12.539 5.53 12.539 12.484v56.727c0 6.899-5.64 12.594-12.539 12.594zM778.219 161.888h-45.885v197.777c0 6.899-5.53 12.594-12.484 12.594h-130.318c-6.954 0-12.539-5.695-12.539-12.594v-197.777h-45.885v450.638h247.112v-450.638zM602.070 163.859v183.322h105.24v-183.322h-105.24zM654.69 734.083l104.145-96.479h-208.29l104.145 96.479zM802.969 627.803c0 0.164-0.055 0.274-0.11 0.383-0.219 0.986-0.657 1.862-1.040 2.738-0.11 0.219-0.219 0.438-0.383 0.657-0.602 0.986-1.205 1.807-2.026 2.574 0 0.055 0 0.11-0.055 0.164l-136.177 126.102c-4.764 4.435-12.21 4.435-17.029 0l-136.068-126.102c0-0.055-0.055-0.11-0.11-0.164-0.821-0.767-1.478-1.588-2.081-2.574-0.055-0.219-0.164-0.438-0.329-0.657-0.438-0.876-0.821-1.752-1.095-2.738 0-0.11-0.055-0.219-0.11-0.383-0.219-0.876-0.329-1.752-0.329-2.683v-475.771c0-6.899 5.64-12.539 12.594-12.539h272.135c6.899 0 12.539 5.64 12.539 12.539v475.771c0 0.931-0.11 1.807-0.329 2.683z" />
<glyph unicode="&#xe902;" glyph-name="icon-needs-approval" d="M184.12 820.888c-39.172 0-70.923-32.603-70.923-72.687v-52.736c0-40.084 31.751-72.747 70.923-72.747h309.785c9.489 0 21.715-5.292 41.118-14.051 10.036-4.562 22.931-10.34 31.568-12.895-1.338 5.718-3.893 13.26-5.718 18.491-6.326 19.16-11.374 34.306-5.292 45.558 6.022 10.766 9.185 23.114 9.185 35.644v52.736c0 40.084-31.812 72.687-70.862 72.687h-309.785zM573.161 566.637c-12.956 0-30.778 8.090-49.755 16.666-9.975 4.562-25.121 11.435-29.561 11.618h-309.724c-54.5 0-98.781 45.133-98.781 100.545v52.736c0 55.473 44.281 100.606 98.781 100.606h309.785c54.378 0 98.72-45.133 98.72-100.606v-52.736c0-16.727-4.136-33.211-11.861-47.931 0-4.562 4.075-16.97 6.63-24.452 7.36-22.080 14.294-42.943-1.156-52.918-3.589-2.251-8.029-3.528-13.078-3.528zM772.657 363.571c0-11.131-6.326-20.863-15.511-25.851v145.495c9.185-4.988 15.511-14.659 15.511-25.851v-93.793zM729.288 334.253c-3.467 0.122-6.265 3.163-6.265 7.056v138.378c0 3.832 2.798 6.873 6.265 7.056v-152.49zM756.964 512.837c-6.022 88.927-76.944 160.093-165.75 166.419-1.642-9.732-4.623-19.221-8.881-28.162 76.519-2.007 139.047-61.312 145.981-136.614-18.43-0.669-33.15-15.936-33.15-34.792v-138.378c0-18.552 14.294-33.637 32.298-34.731-9.854-73.538-72.808-130.532-149.084-130.532v-28.649c92.455 0 168.852 70.436 178.219 160.58 25.060 6.083 43.916 28.71 43.916 55.595v93.793c0 26.824-18.613 49.39-43.551 55.473zM433.657 341.296c0-3.832-2.859-6.934-6.326-7.056v152.551c3.467-0.182 6.326-3.285 6.326-7.117v-138.378zM399.473 337.708c-9.185 4.988-15.45 14.781-15.45 25.851v93.793c0 11.192 6.265 20.924 15.45 25.851v-145.495zM428.365 514.528c2.798 30.291 14.659 57.967 32.785 80.411h-34.975c-14.963-24.209-24.391-52.128-26.459-82.115-24.999-6.083-43.551-28.588-43.551-55.473v-93.793c0-31.508 25.668-57.176 57.237-57.176h13.747c18.978 0 34.366 15.693 34.366 34.914v138.378c0 18.856-14.72 34.123-33.15 34.853zM592.376 752.934c0.122-1.581 0.243-3.163 0.243-4.744v-23.114c171.467-7.542 308.69-149.327 308.69-322.68 0-178.037-144.947-322.923-322.923-322.923-178.158 0-323.045 144.887-323.045 322.923 0 72.139 23.722 138.743 63.806 192.513h-33.941c-36.435-55.29-57.724-121.469-57.724-192.513 0-193.425 157.417-350.781 350.903-350.781 193.365 0 350.781 157.356 350.781 350.781 0 188.803-149.813 343.117-336.791 350.538zM498.941 708.209h-320.369c-7.664 0-13.868 6.265-13.868 13.929s6.204 13.929 13.868 13.929h320.369c7.725 0 13.929-6.265 13.929-13.929s-6.204-13.929-13.929-13.929zM498.941 652.255h-320.369c-7.664 0-13.868 6.265-13.868 13.929s6.204 13.868 13.868 13.868h320.369c7.725 0 13.929-6.204 13.929-13.868s-6.204-13.929-13.929-13.929zM498.941 764.162h-320.369c-7.664 0-13.868 6.265-13.868 13.929s6.204 13.929 13.868 13.929h320.369c7.725 0 13.929-6.265 13.929-13.929s-6.204-13.929-13.929-13.929zM547.115 483.914c0-8.029-6.387-14.416-14.355-14.416s-14.416 6.387-14.416 14.416c0 7.907 6.448 14.294 14.416 14.294s14.355-6.387 14.355-14.294zM597.187 483.914c0-8.029-6.448-14.416-14.355-14.416s-14.416 6.387-14.416 14.416c0 7.907 6.508 14.294 14.416 14.294s14.355-6.387 14.355-14.294zM647.319 483.914c0-8.029-6.448-14.416-14.355-14.416-7.968 0-14.416 6.387-14.416 14.416 0 7.907 6.448 14.294 14.416 14.294 7.907 0 14.355-6.387 14.355-14.294zM582.814 184.476c-12.591 0-22.87-10.219-22.87-22.749 0-12.591 10.28-22.87 22.87-22.87s22.81 10.28 22.81 22.87c0 12.53-10.219 22.749-22.81 22.749zM582.814 110.998c-27.919 0-50.668 22.749-50.668 50.729 0 27.858 22.749 50.668 50.668 50.668 27.98 0 50.668-22.81 50.668-50.668 0-27.98-22.688-50.729-50.668-50.729z" />
<glyph unicode="&#xe903;" glyph-name="icon-become-a-tester" d="M154.899 273.894c-23.052 0-41.739-18.687-41.739-41.739v-12.843c0-23.052 18.687-41.739 41.739-41.739h711.92c23.052 0 41.739 18.687 41.739 41.739v12.843c0 23.052-18.687 41.739-41.739 41.739h-711.92zM154.899 301.72h711.92c38.42 0 69.565-31.145 69.565-69.565v-12.843c0-38.42-31.145-69.565-69.565-69.565h-711.92c-38.42 0-69.565 31.145-69.565 69.565v12.843c0 38.42 31.145 69.565 69.565 69.565zM506.997 440.214c3.335 1.959 7.469 1.959 10.804 0l25.861-15.189 18.628 23.506c2.402 3.031 6.257 4.525 10.074 3.903l29.602-4.821 8.879 28.647c1.145 3.694 4.2 6.479 7.984 7.279l29.344 6.198-2.069 29.92c-0.267 3.858 1.576 7.559 4.816 9.671l25.124 16.38-12.738 27.152c-1.643 3.502-1.261 7.618 0.997 10.758l17.51 24.349-21.686 20.717c-2.797 2.672-3.928 6.648-2.957 10.392l7.532 29.031-27.706 11.484c-3.573 1.481-6.064 4.78-6.511 8.622l-3.464 29.791-29.984 0.7c-3.867 0.090-7.381 2.267-9.186 5.688l-13.992 26.528-28.212-10.178c-3.638-1.313-7.702-0.553-10.62 1.985l-22.63 19.682-22.63-19.682c-2.918-2.538-6.982-3.298-10.62-1.985l-28.212 10.178-13.992-26.528c-1.804-3.421-5.319-5.597-9.186-5.688l-29.984-0.7-3.464-29.791c-0.447-3.842-2.938-7.141-6.511-8.622l-27.706-11.484 7.532-29.031c0.971-3.744-0.16-7.72-2.957-10.392l-21.686-20.717 17.51-24.349c2.258-3.14 2.64-7.256 0.997-10.758l-12.738-27.152 25.124-16.38c3.24-2.112 5.083-5.813 4.816-9.671l-2.069-29.92 29.344-6.198c3.784-0.799 6.839-3.584 7.984-7.279l8.879-28.647 29.602 4.821c3.817 0.622 7.672-0.872 10.074-3.903l18.628-23.506 25.861 15.189zM483.94 401.932c-4.587-2.694-10.458-1.597-13.762 2.573l-20.499 25.867-32.575-5.306c-5.25-0.855-10.328 2.289-11.903 7.37l-9.771 31.525-32.292 6.82c-5.205 1.099-8.804 5.865-8.437 11.172l2.277 32.926-27.648 18.025c-4.456 2.905-6.091 8.65-3.831 13.466l14.018 29.88-19.269 26.795c-3.106 4.319-2.555 10.266 1.292 13.94l23.865 22.798-8.289 31.947c-1.336 5.149 1.326 10.496 6.24 12.532l30.489 12.638 3.812 32.783c0.614 5.284 5.028 9.308 10.346 9.432l32.995 0.77 15.397 29.193c2.482 4.705 8.051 6.863 13.055 5.057l31.046-11.201 24.903 21.659c4.014 3.491 9.986 3.491 14 0l24.903-21.659 31.046 11.201c5.004 1.805 10.573-0.352 13.055-5.057l15.397-29.193 32.995-0.77c5.318-0.124 9.732-4.148 10.346-9.432l3.812-32.783 30.489-12.638c4.914-2.037 7.576-7.383 6.24-12.532l-8.289-31.947 23.865-22.798c3.847-3.675 4.398-9.622 1.292-13.94l-19.269-26.795 14.018-29.88c2.259-4.816 0.625-10.561-3.831-13.466l-27.648-18.025 2.277-32.926c0.367-5.307-3.232-10.073-8.437-11.172l-32.292-6.82-9.771-31.525c-1.575-5.081-6.653-8.225-11.903-7.37l-32.575 5.306-20.499-25.867c-3.304-4.169-9.175-5.267-13.762-2.573l-28.459 16.715-28.459-16.715zM563.069 442.666l22.779-4.376v-110.979c0-4.285-2.361-8.199-6.253-10.267-1.673-0.796-3.389-1.218-5.136-1.218-2.392 0-4.692 0.74-6.627 2.16l-56.891 41.010-56.908-40.997c-3.449-2.528-8.086-2.883-11.865-0.895-3.78 2.012-6.17 5.93-6.17 10.207v110.979l22.779 4.376v-93.005l45.522 32.822c1.965 1.391 4.291 2.145 6.643 2.145 2.334 0 4.67-0.766 6.59-2.159l45.538-32.81v93.008zM512 471.467c-67.158 0-121.6 54.442-121.6 121.6s54.442 121.6 121.6 121.6c67.158 0 121.6-54.442 121.6-121.6s-54.442-121.6-121.6-121.6zM512 492.8c55.376 0 100.267 44.891 100.267 100.267s-44.891 100.267-100.267 100.267c-55.376 0-100.267-44.891-100.267-100.267s44.891-100.267 100.267-100.267zM304.018 336.325h18.551v-221.182h-18.551zM312.58 354.875c-28.175 0-51.014 22.84-51.014 51.014s22.84 51.014 51.014 51.014c28.175 0 51.014-22.84 51.014-51.014s-22.84-51.014-51.014-51.014zM312.58 373.426c17.929 0 32.464 14.535 32.464 32.464s-14.535 32.464-32.464 32.464c-17.929 0-32.464-14.535-32.464-32.464s14.535-32.464 32.464-32.464zM331.552 405.89c0-10.478-8.494-18.972-18.972-18.972s-18.972 8.494-18.972 18.972c0 10.478 8.494 18.972 18.972 18.972s18.972-8.494 18.972-18.972zM506.649 336.325h18.551v-221.182h-18.551zM699.148 336.325h18.551v-221.182h-18.551zM164.602 210.822c-7.684 0-13.913 6.229-13.913 13.913s6.229 13.913 13.913 13.913h175.858c7.684 0 13.913-6.229 13.913-13.913s-6.229-13.913-13.913-13.913h-175.858zM507.036 568.375c3.107 1.634 6.82 1.634 9.927 0l20.996-11.038-4.010 23.379c-0.593 3.46 0.554 6.991 3.068 9.441l16.986 16.557-23.474 3.411c-3.474 0.505-6.478 2.687-8.031 5.835l-10.498 21.271-10.498-21.271c-1.554-3.148-4.557-5.33-8.031-5.835l-23.474-3.411 16.986-16.557c2.514-2.451 3.661-5.981 3.068-9.441l-4.010-23.379 20.996 11.038zM476.837 528.396c-7.825-4.114-16.971 2.531-15.477 11.245l6.715 39.154-28.447 27.729c-6.331 6.171-2.837 16.923 5.912 18.194l39.313 5.712 17.581 35.624c3.913 7.928 15.218 7.928 19.13 0l17.581-35.624 39.313-5.712c8.749-1.271 12.242-12.023 5.912-18.194l-28.447-27.729 6.715-39.154c1.495-8.714-7.651-15.359-15.477-11.245l-35.163 18.486-35.163-18.486z" />
<glyph unicode="&#xe904;" glyph-name="icon-collect-points" d="M154.899 275.107c-23.052 0-41.739-18.687-41.739-41.739v-12.843c0-23.052 18.687-41.739 41.739-41.739h711.92c23.052 0 41.739 18.687 41.739 41.739v12.843c0 23.052-18.687 41.739-41.739 41.739h-711.92zM154.899 302.933h711.92c38.42 0 69.565-31.145 69.565-69.565v-12.843c0-38.42-31.145-69.565-69.565-69.565h-711.92c-38.42 0-69.565 31.145-69.565 69.565v12.843c0 38.42 31.145 69.565 69.565 69.565zM438.744 220.023l-39.195-22.397c-4.092-2.338-9.305-0.917-11.643 3.175-0.737 1.289-1.124 2.749-1.124 4.234v44.794c0 4.713 3.821 8.533 8.533 8.533 1.485 0 2.944-0.388 4.234-1.124l39.195-22.397c4.092-2.338 5.514-7.551 3.175-11.643-0.756-1.323-1.852-2.419-3.175-3.175zM531.498 220.023l-39.195-22.397c-4.092-2.338-9.305-0.917-11.643 3.175-0.737 1.289-1.124 2.749-1.124 4.234v44.794c0 4.713 3.821 8.533 8.533 8.533 1.485 0 2.944-0.388 4.234-1.124l39.195-22.397c4.092-2.338 5.514-7.551 3.175-11.643-0.756-1.323-1.852-2.419-3.175-3.175zM614.976 220.023l-39.195-22.397c-4.092-2.338-9.305-0.917-11.643 3.175-0.737 1.289-1.124 2.749-1.124 4.234v44.794c0 4.713 3.821 8.533 8.533 8.533 1.485 0 2.944-0.388 4.234-1.124l39.195-22.397c4.092-2.338 5.514-7.551 3.175-11.643-0.756-1.323-1.852-2.419-3.175-3.175zM304.018 337.067h18.551v-221.182h-18.551zM506.649 337.067h18.551v-221.182h-18.551zM699.148 337.067h18.551v-221.182h-18.551zM164.602 213.76c-7.684 0-13.913 5.731-13.913 12.8s6.229 12.8 13.913 12.8h186.491c7.684 0 13.913-5.731 13.913-12.8s-6.229-12.8-13.913-12.8h-186.491zM463.628 304.291h344.972c1.505 25.015 1.216 84.993-31.672 123.546-19.628 23.014-48.405 35.080-85.577 36.022l-47.189-36.787c-4.748-3.767-11.349-3.767-16.096 0l-47.189 36.787c-37.172-0.942-65.949-13.008-85.577-36.022-32.888-38.553-33.119-98.531-31.672-123.546zM820.644 277.333h-369.059c-6.601 0-12.217 4.944-13.201 11.536-0.521 3.944-13.317 97.589 36.767 156.448 25.65 30.195 62.706 45.498 110.243 45.498 2.837 0 5.732-1.001 7.99-2.766l42.731-33.314 42.673 33.314c2.374 1.766 5.211 2.766 8.106 2.766 47.479 0 84.477-15.303 110.185-45.498 50.026-58.859 37.288-152.505 36.767-156.448-0.984-6.592-6.601-11.536-13.201-11.536zM626.797 659.324c-39.168 0-71.011-31.833-71.011-70.99s31.842-71.048 71.011-71.048c39.226 0 71.069 31.891 71.069 71.048s-31.842 70.99-71.069 70.99zM626.797 490.816c-53.705 0-97.431 43.77-97.431 97.517 0 53.689 43.726 97.402 97.431 97.402 53.763 0 97.488-43.713 97.488-97.402 0-53.747-43.726-97.517-97.488-97.517zM184.472 763.949c-29.412 0-54.307-40.109-54.307-87.52 0-47.464 24.895-87.573 54.307-87.573h241.251c8.469 0 17.966-5.979 33.929-16.721 6.006-3.969 15.758-10.53 22.38-13.811-0.821 7.567-3.49 19.208-5.236 26.986-5.133 22.594-8.059 36.881-4.466 46.618 5.082 13.493 7.751 28.838 7.751 44.501 0 47.411-24.946 87.52-54.358 87.52h-241.251zM487.473 532.184c-10.471 0-22.893 7.778-40.602 19.631-7.289 4.868-18.222 12.223-21.764 12.858l-240.635-0.053c-42.912 0-77.816 50.163-77.816 111.808 0 62.651 34.186 111.755 77.816 111.755h241.251c43.631 0 77.816-49.105 77.816-111.755 0-18.626-3.182-36.987-9.291-53.179-0.924-4.286 3.080-21.907 5.441-32.437 5.852-25.822 10.061-44.395 0.103-53.92-2.259-2.169-6.262-4.709-12.319-4.709zM383.075 494.495l12.718-6.17-1.687 14.542 9.547 10.729-13.761 2.817-6.817 12.801-6.817-12.801-13.761-2.817 9.547-10.729-1.687-14.542 12.718 6.17zM372.056 472.213c-5.984-2.903-13.088-0.189-15.867 6.062-0.938 2.109-1.293 4.45-1.025 6.759l1.462 12.599-8.272 9.295c-4.492 5.048-4.217 12.945 0.616 17.638 1.63 1.583 3.652 2.659 5.837 3.107l11.922 2.441 5.906 11.091c3.208 6.023 10.482 8.19 16.248 4.839 1.945-1.131 3.55-2.806 4.632-4.839l5.906-11.091 11.922-2.441c6.475-1.326 10.695-7.883 9.426-14.647-0.428-2.282-1.458-4.394-2.974-6.097l-8.272-9.295 1.462-12.599c0.794-6.842-3.872-13.062-10.422-13.891-2.21-0.28-4.451 0.091-6.47 1.070l-11.019 5.346-11.019-5.346zM301.388 494.495l12.718-6.17-1.687 14.542 9.547 10.729-13.761 2.817-6.817 12.801-6.817-12.801-13.761-2.817 9.547-10.729-1.687-14.542 12.718 6.17zM290.369 472.213c-5.984-2.903-13.088-0.189-15.867 6.062-0.938 2.109-1.293 4.45-1.025 6.759l1.462 12.599-8.272 9.295c-4.492 5.048-4.217 12.945 0.616 17.638 1.63 1.583 3.652 2.659 5.837 3.107l11.922 2.441 5.906 11.091c3.208 6.023 10.482 8.19 16.248 4.839 1.945-1.131 3.55-2.806 4.632-4.839l5.906-11.091 11.922-2.441c6.475-1.326 10.695-7.883 9.426-14.647-0.428-2.282-1.458-4.394-2.974-6.097l-8.272-9.295 1.462-12.599c0.794-6.842-3.872-13.062-10.422-13.891-2.21-0.28-4.451 0.091-6.47 1.070l-11.019 5.346-11.019-5.346zM206.984 488.325l12.718 6.17 12.718-6.17-1.687 14.542 9.547 10.729-13.761 2.817-6.817 12.801-6.817-12.801-13.761-2.817 9.547-10.729-1.687-14.542zM208.683 472.213c-5.984-2.903-13.088-0.189-15.867 6.062-0.938 2.109-1.293 4.45-1.025 6.759l1.462 12.599-8.272 9.295c-4.492 5.048-4.217 12.945 0.616 17.638 1.63 1.583 3.652 2.659 5.837 3.107l11.922 2.441 5.906 11.091c3.208 6.023 10.482 8.19 16.248 4.839 1.945-1.131 3.55-2.806 4.632-4.839l5.906-11.091 11.922-2.441c6.475-1.326 10.695-7.883 9.426-14.647-0.428-2.282-1.458-4.394-2.974-6.097l-8.272-9.295 1.462-12.599c0.794-6.842-3.872-13.062-10.422-13.891-2.21-0.28-4.451 0.091-6.47 1.070l-11.019 5.346-11.019-5.346zM434.238 695.018h-245.992c-6.428 0-11.591 6.262-11.591 13.923s5.163 13.923 11.591 13.923h245.992c6.378 0 11.591-6.262 11.591-13.923s-5.213-13.923-11.591-13.923zM434.238 630.044h-245.992c-6.428 0-11.591 6.262-11.591 13.923s5.163 13.923 11.591 13.923h245.992c6.378 0 11.591-6.262 11.591-13.923s-5.213-13.923-11.591-13.923z" />
<glyph unicode="&#xe905;" glyph-name="icon-pen-talking" d="M215.635 255.145c-24.932 0-45.293-20.307-45.293-45.293 0-7.549 1.967-15.098 5.582-21.743 5.263-9.516-0.266-20.839-12.067-43.645-1.223-2.499-2.764-5.422-4.359-8.453 6.167 3.455 12.705 7.336 17.649 10.366 22.008 13.237 30.993 18.234 38.488 18.234h192.228c24.985 0 45.24 20.307 45.24 45.24 0 24.985-20.254 45.293-45.24 45.293h-192.228zM143.656 104.009c-3.030 0-5.901 0.744-8.346 2.233-14.247 8.612-5.316 25.73 6.964 49.439 3.615 7.070 9.516 18.394 10.951 23.284-4.731 9.622-7.23 20.201-7.23 30.886 0 38.435 31.258 69.64 69.64 69.64h192.228c38.382 0 69.64-31.205 69.64-69.64 0-38.329-31.258-69.587-69.64-69.587h-191.431c-4.306-1.329-17.756-9.356-26.74-14.725-22.115-13.29-36.255-21.53-46.037-21.53zM275.494 209.878c0-7.974-6.486-14.513-14.513-14.513-8.080 0-14.619 6.539-14.619 14.513 0 8.027 6.539 14.566 14.619 14.566 8.027 0 14.513-6.539 14.513-14.566zM326.315 209.878c0-7.974-6.539-14.513-14.513-14.513-8.134 0-14.619 6.539-14.619 14.513 0 8.027 6.486 14.566 14.619 14.566 7.974 0 14.513-6.539 14.513-14.566zM377.089 209.878c0-7.974-6.486-14.513-14.513-14.513-8.134 0-14.619 6.539-14.619 14.513 0 8.027 6.486 14.566 14.619 14.566 8.027 0 14.513-6.539 14.513-14.566zM531.068 133.769c-3.296 32.96-5.688 70.757-4.306 91.33l33.332-12.28 33.385-12.174c-12.386-16.958-39.179-44.495-62.41-66.876zM532.929 248.755l132.263 360.747 24.241-8.878-132.423-360.747-24.082 8.878zM604.058 222.653l-24.135 8.878 132.317 360.747 24.082-8.878-132.263-360.747zM744.774 606.312l-71.129 26.049 29.451 80.432 71.129-26.102-29.451-80.379zM727.816 772.28l66.025-24.241c-0.904-6.22-3.668-17.862-9.569-34.023l-1.648-4.465-71.076 26.102 1.595 4.465c5.954 16.161 11.43 26.793 14.672 32.162zM809.098 768.399l-79.794 29.291c-1.329 0.478-3.19 0.797-4.572 0.797-5.263 0-16.108 0-34.448-49.971l-184.414-502.792c-9.516-26.049 1.435-120.409 3.721-139.068 0.532-4.519 3.615-8.346 7.921-9.888 1.382-0.532 2.764-0.797 4.147-0.797 3.083 0 6.060 1.17 8.293 3.296 13.769 12.705 83.196 77.561 92.765 103.61l184.414 502.792c20.52 55.925 8.559 60.39 1.967 62.729zM567.93 414.887h-180.374c-6.751 0-12.174-5.476-12.174-12.174 0-6.751 5.422-12.227 12.174-12.227h171.443l8.931 24.401zM776.521 414.887h-76.073l-8.931-24.401h85.004c6.698 0 12.174 5.476 12.174 12.227 0 6.698-5.476 12.174-12.174 12.174zM776.521 481.391h-51.619l-8.984-24.348h60.603c6.698 0 12.174 5.422 12.174 12.174 0 6.645-5.476 12.174-12.174 12.174zM592.325 481.391h-204.774c-6.751 0-12.174-5.529-12.174-12.174 0-6.751 5.422-12.174 12.174-12.174h195.843l8.931 24.348zM878.999 348.59c-3.349 9.941-9.037 26.421-8.24 31.471 9.409 17.011 14.407 36.309 14.407 55.925 0 63.421-51.566 115.093-115.093 115.093h-19.669l-8.878-24.294h28.547c50.077 0 90.745-40.774 90.745-90.798 0-15.629-3.987-30.993-11.642-44.495-6.22-11.164-1.488-26.58 6.751-50.768 2.977-8.665 7.549-22.062 8.346-29.026-10.366 1.116-30.248 9.941-46.356 17.171-22.859 10.047-37.372 16.267-47.844 16.267h-95.211l-8.931-24.294h104.141c5.901 0 24.401-8.293 37.957-14.247 22.434-10.047 43.592-19.35 58.37-19.35 5.103 0 9.516 1.17 13.131 3.402 15.842 9.994 7.868 33.278-0.532 57.945zM542.333 345.114h-148.371c-50.024 0-90.798 40.774-90.798 90.851 0 50.024 40.774 90.798 90.798 90.798h214.981l8.931 24.294h-223.912c-63.474 0-115.146-51.672-115.146-115.093 0-63.474 51.672-115.146 115.146-115.146h139.44l8.931 24.294z" />
<glyph unicode="&#xe906;" glyph-name="icon-reduce-points" d="M640.412 405.122h-256.825v261.536h34.647c-0.495-5.599-0.77-11.198-0.77-16.963 0-7.040 5.664-12.694 12.594-12.694 6.984 0 12.594 5.654 12.594 12.694 0 5.765 0.385 11.364 0.88 16.963h136.937c0.495-5.599 0.935-11.198 0.935-16.963 0-7.040 5.554-12.694 12.539-12.694 6.929 0 12.594 5.654 12.594 12.694 0 5.765-0.275 11.364-0.715 16.963h34.592v-261.536zM512 764c28.597 0 53.785-30.267 64.179-72.008h-128.357c10.449 41.742 35.637 72.008 64.179 72.008zM653.006 691.992h-50.705c-11.934 57.041-47.35 97.342-90.301 97.342s-78.422-40.3-90.301-97.342h-50.65c-6.984 0-12.649-5.71-12.649-12.694v-286.87c0-6.985 5.664-12.694 12.649-12.694h281.957c6.874 0 12.594 5.71 12.594 12.694v286.87c0 6.985-5.719 12.694-12.594 12.694zM512.028 601.679c-37.703 0-68.388-30.704-68.388-68.429 0-37.614 30.686-68.262 68.388-68.262s68.332 30.648 68.332 68.262c0 37.725-30.63 68.429-68.332 68.429zM512.028 439.467c-51.737 0-93.895 42.071-93.895 93.783 0 51.823 42.158 93.95 93.895 93.95s93.839-42.127 93.839-93.95c0-51.712-42.102-93.783-93.839-93.783zM517.371 490.667c-3.776 0-7.438 1.55-9.955 4.276l-34.958 38.167c-4.692 5.132-4.005 12.829 1.43 17.212 5.55 4.383 13.789 3.795 18.48-1.336l21.456-23.36 24.316 51.584c2.918 6.201 10.642 9.034 17.222 6.254 6.637-2.673 9.669-9.889 6.694-16.090l-32.67-69.384c-1.888-3.902-5.664-6.575-10.127-7.216-0.629-0.053-1.259-0.107-1.888-0.107zM155.085 274.809c-23.114 0-41.851-18.887-41.851-42.186v-12.98c0-23.299 18.737-42.186 41.851-42.186h713.83c23.114 0 41.851 18.887 41.851 42.186v12.98c0 23.299-18.737 42.186-41.851 42.186h-713.83zM155.085 302.933h713.83c38.523 0 69.752-31.479 69.752-70.31v-12.98c0-38.831-31.229-70.31-69.752-70.31h-713.83c-38.523 0-69.752 31.479-69.752 70.31v12.98c0 38.831 31.229 70.31 69.752 70.31zM543.724 220.387l38.537-22.808c4.056-2.4 9.289-1.058 11.69 2.997 0.779 1.316 1.19 2.817 1.19 4.346v45.615c0 4.713-3.821 8.533-8.533 8.533-1.529 0-3.030-0.411-4.346-1.19l-38.537-22.808c-4.056-2.4-5.398-7.634-2.997-11.69 0.731-1.235 1.762-2.266 2.997-2.997zM628.715 220.426l38.537-22.808c4.056-2.4 9.289-1.058 11.69 2.997 0.779 1.316 1.19 2.817 1.19 4.346v45.615c0 4.713-3.821 8.533-8.533 8.533-1.529 0-3.030-0.411-4.346-1.19l-38.537-22.808c-4.056-2.4-5.398-7.634-2.997-11.69 0.731-1.235 1.762-2.266 2.997-2.997zM732.592 220.426l38.537-22.808c4.056-2.4 9.289-1.058 11.69 2.997 0.779 1.316 1.19 2.817 1.19 4.346v45.615c0 4.713-3.821 8.533-8.533 8.533-1.529 0-3.030-0.411-4.346-1.19l-38.537-22.808c-4.056-2.4-5.398-7.634-2.997-11.69 0.731-1.235 1.762-2.266 2.997-2.997zM298.667 337.067h17.067v-221.867h-17.067zM503.467 337.067h17.067v-221.867h-17.067zM699.733 337.067h17.067v-221.867h-17.067zM158.955 213.76c-7.67 0-13.889 5.731-13.889 12.8s6.218 12.8 13.889 12.8h185.556c7.67 0 13.889-5.731 13.889-12.8s-6.218-12.8-13.889-12.8h-185.556zM389.067 213.76c-7.511 0-13.6 5.731-13.6 12.8s6.089 12.8 13.6 12.8h9.067c7.511 0 13.6-5.731 13.6-12.8s-6.089-12.8-13.6-12.8h-9.067zM443.467 213.76c-7.511 0-13.6 5.731-13.6 12.8s6.089 12.8 13.6 12.8h9.067c7.511 0 13.6-5.731 13.6-12.8s-6.089-12.8-13.6-12.8h-9.067zM497.867 213.76c-7.511 0-13.6 5.731-13.6 12.8s6.089 12.8 13.6 12.8h9.067c7.511 0 13.6-5.731 13.6-12.8s-6.089-12.8-13.6-12.8h-9.067z" />
<glyph unicode="&#xe907;" glyph-name="icon-account" d="M697.764 151.491c1.229 1.314 2.381 2.705 3.439 4.164-1.067-1.459-2.202-2.85-3.439-4.164zM854.513 163.565h-148.634c-0.973-2.202-2.176-4.275-3.49-6.272 4.395 6.707 6.997 14.694 6.997 23.313v11.349c0 41.583-22.588 78.899-58.897 97.331-38.903 19.797-81.698 33.741-126.080 42.214 24.602 17.007 53.41 28.297 84.924 31.667 15.002 1.63 30.123 2.475 45.295 2.475 15.113 0 30.234-0.845 45.235-2.475 94.797-10.172 166.221-90.923 166.221-187.972 0-6.349-5.222-11.631-11.571-11.631zM683.983 141.626c2.236 0.998 4.403 2.133 6.417 3.49-2.014-1.357-4.181-2.492-6.417-3.49zM691.202 145.739c1.732 1.22 3.362 2.569 4.89 4.019-1.527-1.451-3.157-2.799-4.89-4.019zM681.986 140.849c-1.775-0.691-3.601-1.254-5.478-1.698 1.877 0.444 3.703 1.015 5.478 1.698zM471.357 163.582v110.891c0 7.322-5.786 13.269-12.868 13.269s-12.868-5.948-12.868-13.269v-110.891h-39.765v110.891c0 7.322-5.786 13.269-12.928 13.269-7.134 0-12.86-5.948-12.86-13.269v-110.891h-200.823c-9.387 0-16.973 7.637-16.973 17.024v11.349c0 31.36 17.587 60.578 44.732 74.402 64.623 32.819 140.203 49.229 215.953 49.229 75.699 0 151.339-16.41 215.962-49.229 27.145-13.824 44.791-43.042 44.791-74.402v-11.349c0-9.387-7.646-17.024-17.033-17.024h-195.319zM369.615 365.541c16.708-7.996 34.56-12.237 52.617-12.237 17.809 0 35.328 4.096 51.814 11.836 1.792-8.747 4.813-18.022 9.498-27.307-40.951 4.565-82.688 4.412-123.614-0.341 4.813 9.6 7.851 19.072 9.685 28.049zM305.179 491.433c-0.964 3.814-3.686 6.938-7.142 8.585-1.758 0.794-3.686 1.195-5.555 1.195-1.929 0-3.857-0.452-5.615-1.254-2.21 0.119-10.146 8.303-11.682 25.626-1.527 17.050 4.77 27.392 7.262 27.733 3.917-1.195 8.218-0.452 11.622 1.988 3.226 2.441 5.214 6.366 5.214 10.453 0 2.33 0.060 4.548 0.111 6.707 16.154 3.465 26.991 8.132 36.565 12.331 13.372 5.914 23.979 10.624 48.017 10.624 18.876 0 31.744-5.965 45.346-12.211 4.42-2.108 8.9-4.207 13.491-6.025 2.782-1.084 5.675-1.135 8.337-0.452 1.809 0.512 3.567 1.476 5.094 2.782 0.23 0.171 0.401 0.341 0.572 0.512 11.392 11.136 16.324 26.479 18.313 39.723 6.511-8.183 12.356-19.891 11.955-35.746-0.051-3.866 1.536-7.561 4.48-10.112 2.953-2.56 6.801-3.695 10.547-3.012 12.868 2.099 26.923 6.246 42.513 12.501v-0.060c0.060-1.024 0.111-1.988 0.171-2.953 0.23-4.719 0.401-9.549 0.401-14.609 0-4.087 1.98-7.953 5.325-10.394 3.345-2.5 7.706-3.072 11.563-1.877 2.441-0.512 8.73-10.854 7.202-27.904-1.536-17.323-9.412-25.506-11.793-25.566-3.516 1.647-7.543 1.647-11.11 0.060-3.516-1.707-6.127-4.83-7.031-8.644-9.924-39.322-30.609-71.987-58.155-92.049-36.002-26.308-82.031-26.249-118.025 0.060-27.494 20.053-48.017 52.727-57.993 91.989zM422.231 701.908c70.673 0 106.803-26.359 118.613-87.236-0.529-0.486-1.067-0.956-1.562-1.485 0.606 0.282 1.152 0.495 1.715 0.708 0.23-1.229 0.521-2.381 0.734-3.644-10.88-4.659-20.745-8.124-29.815-10.624-6.861 40.627-41.719 57.677-43.426 58.47-4.25 1.988-9.182 1.536-13.090-1.135-3.797-2.782-5.837-7.33-5.385-12.049 0.845-7.441 0.845-26.65-6.409-39.714-1.075 0.512-2.27 1.075-3.345 1.587-14.908 6.878-31.633 14.66-56.286 14.66-29.483 0-44.22-6.528-58.505-12.783-7.142-3.183-14.455-6.366-24.26-9.037 10.88 89.668 66.833 102.281 121.020 102.281zM702.611 388.794c-31.804 3.422-64.222 3.422-96.085 0-13.841-1.493-27.162-4.446-40.013-8.457-10.539 11.238-20.147 24.175-28.425 38.528-5.402-7.757-11.247-14.95-17.536-21.521 6.161-9.634 12.809-18.611 19.994-26.965-12.169-5.666-23.646-12.484-34.406-20.267-5.043 10.155-7.398 20.292-8.354 29.269 29.141 21.734 51.507 55.006 63.676 94.839 0.435 0.060 0.853 0.196 1.28 0.282-1.468-4.506-3.012-8.943-4.727-13.269 7.825-12.826 17.297-24.073 28.083-33.382-1.348-12.134-5.922-27.068-18.714-40.030 11.571 3.43 23.543 5.905 35.908 7.253 2.697 5.7 4.531 11.435 5.922 16.981 15.147-7.825 31.539-11.93 48.196-11.93 14.473 0 28.8 3.2 42.334 9.207 1.28-4.651 2.85-9.387 5.111-14.208 12.305-1.348 24.218-3.763 35.789-7.074-11.059 11.204-15.906 23.953-17.86 35.046 22.827 17.408 40.499 43.213 50.321 73.95 4.13 0.828 8.038 2.714 11.716 5.589 8.934 7.253 15.044 20.48 16.401 35.422 2.039 21.589-6.34 39.689-19.908 45.44 0 0.444 0 0.887-0.060 1.271-0.623 13.892-2.321 26.573-5.146 37.581-0.853 3.541-3.174 6.426-6.4 8.141s-7.066 2.048-10.462 0.777c-55.671-19.046-63.761-15.172-85.197-4.651-6.852 3.319-15.334 7.467-26.419 11.622-26.598 10.018-54.485 6.033-81.92-11.349 2.031-7.748 3.729-16 4.864-24.798 0-0.137-0.060-0.273-0.051-0.41 0.111-0.853 0.162-1.604 0.282-2.406 18.662 14.225 42.539 24.627 67.601 15.326 9.839-3.763 17.365-7.415 23.987-10.675 25.233-12.288 39.714-17.442 91.307-1.229 0.794-5.914 1.357-12.279 1.698-18.978 0.171-3.712 0.282-7.586 0.282-11.511 0-4.036 2.039-7.859 5.376-10.24 2.944-2.159 6.784-2.876 10.411-2.159 1.86-2.048 4.864-9.028 3.959-19.482-0.905-10.462-5.094-16.657-7.245-18.21-3.277 1.22-6.903 1.050-10.18-0.384-3.507-1.664-6.11-4.71-7.074-8.363-8.030-30.942-24.55-56.619-46.609-72.286-28.749-20.369-65.229-20.369-93.918 0.060-13.85 9.788-25.446 23.561-34.21 39.987 10.334 8.61 17.417 24.38 18.944 42.18 2.381 26.761-7.765 48.811-24.209 54.665-0.051 1.195-0.111 2.389-0.171 3.524-0.333 7.356-0.905 14.549-1.86 22.076 0-0.026-0.017-0.060-0.009-0.085 0 0.060 0.060 0.111 0 0.171l0.009-0.085c-0.009 0.145 0.051 0.282 0.051 0.427-10.487 83.354-58.505 123.93-146.714 123.93-60.425 0-141.602-14.942-148.403-143.872 0-0.29 0.060-0.461 0.060-0.742 0 0.23-0.060 0.452-0.060 0.683v-0.23c-0.111-1.929-0.23-3.806-0.282-5.794-16.444-5.854-26.641-27.904-24.26-54.665 1.638-17.894 8.841-33.749 19.157-42.334 4.48-3.746 9.412-6.016 14.515-6.758 12.1-39.39 34.074-72.38 62.848-94.080-1.365-14.413-6.528-32.077-20.565-47.915-45.73-8.388-89.847-22.588-129.877-42.94-36.241-18.432-58.829-55.748-58.829-97.331v-11.349c0-23.543 19.166-42.709 42.709-42.709h213.581c0.034 0 0.068-0.009 0.102-0.009 0.043 0 0.077 0.009 0.119 0.009h65.34c0.034 0 0.068-0.009 0.102-0.009 0.043 0 0.077 0.009 0.111 0.009h208.077c2.679 0 5.274 0.316 7.817 0.794-2.551-0.486-5.154-0.811-7.842-0.811h187.861c20.506 0 37.257 16.751 37.257 37.316 0 110.14-81.314 202.018-189.158 213.598zM656.713 720.966c89.062 0 156.1-74.743 156.1-173.901 0-64.486-25.993-125.534-64.137-164.71 9.011-2.859 17.732-6.281 26.172-10.325 38.767 43.665 64.137 107.017 64.137 175.036 0 113.801-78.396 199.603-182.272 199.603-50.227 0-94.473-20.087-126.797-53.649 6.323-6.007 11.913-12.791 16.759-20.258 27.887 30.131 66.253 48.205 110.037 48.205zM570.517 601.599c-0.009 0.026 0.009 0.051 0.009 0.085-0.009 0.026-0.009 0.051-0.009 0.085 0.051-0.060 0-0.119 0-0.171zM427.51 727.937h-0.614c1.007 0 1.963-0.111 2.978-0.111-0.845 0.051-1.579 0.111-2.364 0.111z" />
<glyph unicode="&#xe908;" glyph-name="icon-calendar" d="M283.544 465.755c-10.752 0-19.436 8.684-19.436 19.495 0 10.752 8.684 19.495 19.436 19.495 10.811 0 19.495-8.743 19.495-19.495 0-10.811-8.684-19.495-19.495-19.495zM283.544 531.744c-25.639 0-46.494-20.795-46.494-46.494 0-25.639 20.854-46.553 46.494-46.553 25.698 0 46.553 20.913 46.553 46.553 0 25.698-20.854 46.494-46.553 46.494zM416.809 465.755c-10.752 0-19.436 8.684-19.436 19.495 0 10.752 8.684 19.495 19.436 19.495 10.811 0 19.495-8.743 19.495-19.495 0-10.811-8.684-19.495-19.495-19.495zM416.809 531.744c-25.639 0-46.494-20.795-46.494-46.494 0-25.639 20.854-46.553 46.494-46.553 25.698 0 46.553 20.913 46.553 46.553 0 25.698-20.854 46.494-46.553 46.494zM550.14 465.755c-10.693 0-19.495 8.684-19.495 19.495 0 10.752 8.802 19.495 19.495 19.495 10.752 0 19.495-8.743 19.495-19.495 0-10.811-8.743-19.495-19.495-19.495zM550.14 531.744c-25.698 0-46.553-20.795-46.553-46.494 0-25.639 20.854-46.553 46.553-46.553s46.553 20.913 46.553 46.553c0 25.698-20.854 46.494-46.553 46.494zM683.465 504.757c10.752 0 19.495-8.743 19.495-19.495 0-10.811-8.743-19.495-19.495-19.495s-19.495 8.684-19.495 19.495c0 10.752 8.743 19.495 19.495 19.495zM683.465 438.709c25.698 0 46.553 20.854 46.553 46.553 0 25.639-20.854 46.494-46.553 46.494s-46.553-20.854-46.553-46.494c0-25.698 20.854-46.553 46.553-46.553zM283.544 337.906c-10.752 0-19.436 8.743-19.436 19.554 0 10.752 8.684 19.436 19.436 19.436 10.811 0 19.495-8.684 19.495-19.436 0-10.811-8.684-19.554-19.495-19.554zM283.544 403.954c-25.639 0-46.494-20.854-46.494-46.494 0-25.698 20.854-46.612 46.494-46.612 25.698 0 46.553 20.913 46.553 46.612 0 25.639-20.854 46.494-46.553 46.494zM416.809 337.906c-10.752 0-19.436 8.743-19.436 19.554 0 10.752 8.684 19.436 19.436 19.436 10.811 0 19.495-8.684 19.495-19.436 0-10.811-8.684-19.554-19.495-19.554zM416.809 403.954c-25.639 0-46.494-20.854-46.494-46.494 0-25.698 20.854-46.612 46.494-46.612 25.698 0 46.553 20.913 46.553 46.612 0 25.639-20.854 46.494-46.553 46.494zM550.14 337.906c-10.693 0-19.495 8.743-19.495 19.554 0 10.752 8.802 19.436 19.495 19.436 10.752 0 19.495-8.684 19.495-19.436 0-10.811-8.743-19.554-19.495-19.554zM550.14 403.954c-25.698 0-46.553-20.854-46.553-46.494 0-25.698 20.854-46.612 46.553-46.612s46.553 20.913 46.553 46.612c0 25.639-20.854 46.494-46.553 46.494zM650.464 343.849c7.444 0 13.529 6.144 13.529 13.588 0 10.752 8.743 19.495 19.495 19.495 10.693 0 19.495-8.743 19.495-19.495 0-7.444 6.026-13.588 13.529-13.588 7.444 0 13.529 6.144 13.529 13.588 0 25.639-20.913 46.553-46.553 46.553-25.698 0-46.553-20.913-46.553-46.553 0-7.444 6.026-13.588 13.529-13.588zM283.544 210.123c-10.752 0-19.436 8.743-19.436 19.495s8.684 19.436 19.436 19.436c10.811 0 19.495-8.684 19.495-19.436s-8.684-19.495-19.495-19.495zM283.544 276.112c-25.639 0-46.494-20.854-46.494-46.494s20.854-46.553 46.494-46.553c25.698 0 46.553 20.913 46.553 46.553s-20.854 46.494-46.553 46.494zM416.809 210.123c-10.752 0-19.436 8.743-19.436 19.495s8.684 19.436 19.436 19.436c10.811 0 19.495-8.684 19.495-19.436s-8.684-19.495-19.495-19.495zM416.809 276.112c-25.639 0-46.494-20.854-46.494-46.494s20.854-46.553 46.494-46.553c25.698 0 46.553 20.913 46.553 46.553s-20.854 46.494-46.553 46.494zM550.14 249.060c7.444 0 13.529 6.144 13.529 13.529 0 7.503-6.085 13.529-13.529 13.529-25.698 0-46.553-20.913-46.553-46.494 0-25.698 20.854-46.553 46.553-46.553 7.444 0 13.529 5.967 13.529 13.47s-6.085 13.588-13.529 13.588c-10.693 0-19.495 8.743-19.495 19.495s8.802 19.436 19.495 19.436zM723.501 75.351c-59.963 0-108.702 48.798-108.702 108.702s48.738 108.702 108.702 108.702c60.022 0 108.761-48.798 108.761-108.702s-48.738-108.702-108.761-108.702zM591.583 152.86h-367.754c-9.63 0-17.546 7.798-17.546 17.487v374.075c0 9.748 7.916 17.605 17.546 17.605h519.286c9.748 0 17.664-7.857 17.664-17.605v-229.927c-11.874 3.367-24.34 5.376-37.278 5.376-74.85 0-135.759-60.967-135.759-135.818 0-10.752 1.477-21.209 3.84-31.193zM172.668 589.084c-9.689 0-17.605 7.916-17.605 17.546v73.61c0 9.689 7.916 17.546 17.605 17.546h48.325v-34.796c0-21.386 17.487-38.814 38.814-38.814 21.504 0 38.932 17.428 38.932 38.814v34.796h143.321v-34.796c0-21.386 17.428-38.814 38.873-38.814s38.814 17.428 38.814 38.814v34.796h148.519v-34.796c0-21.386 17.428-38.814 38.932-38.814 21.386 0 38.814 17.428 38.814 38.814v34.796h48.384c9.689 0 17.546-7.857 17.546-17.546v-73.61c0-9.63-7.857-17.546-17.546-17.546h-621.726zM248.050 697.785v61.854c0 6.558 5.317 11.815 11.756 11.815 6.558 0 11.874-5.258 11.874-11.815v-96.65c0-6.439-5.317-11.756-11.874-11.756-6.439 0-11.756 5.317-11.756 11.756v34.796zM469.116 697.785v61.854c0 6.558 5.317 11.815 11.815 11.815s11.815-5.258 11.815-11.815v-96.65c0-6.439-5.317-11.756-11.815-11.756s-11.815 5.317-11.815 11.756v34.796zM695.322 697.785v61.854c0 6.558 5.317 11.815 11.874 11.815 6.439 0 11.756-5.258 11.756-11.815v-96.65c0-6.439-5.317-11.756-11.756-11.756-6.558 0-11.874 5.317-11.874 11.756v34.796zM787.836 303.565v240.857c0 6.262-1.359 12.229-3.722 17.605h10.279c24.576 0 44.603 20.027 44.603 44.603v73.61c0 24.576-20.027 44.603-44.603 44.603h-48.384v34.796c0 21.445-17.428 38.873-38.814 38.873-21.504 0-38.932-17.428-38.932-38.873v-34.796h-148.519v34.796c0 21.445-17.369 38.873-38.814 38.873s-38.873-17.428-38.873-38.873v-34.796h-143.321v34.796c0 21.445-17.428 38.873-38.932 38.873-21.327 0-38.814-17.428-38.814-38.873v-34.796h-48.325c-24.635 0-44.662-20.027-44.662-44.603v-73.61c0-24.576 20.027-44.603 44.662-44.603h10.22c-2.304-5.376-3.663-11.343-3.663-17.605v-374.075c0-24.576 20.027-44.544 44.603-44.544h377.265c21.918-45.785 68.47-77.509 122.407-77.509 74.91 0 135.818 60.908 135.818 135.759 0 51.633-28.948 96.591-71.483 119.513zM772.37 248.889c-6.558 3.486-14.769 0.886-18.255-5.79l-40.999-78.809-21.504 27.943c-4.549 5.967-13.056 6.971-18.964 2.422-5.967-4.549-7.030-13.056-2.422-18.905l34.442-44.721c0-0.059 0.059-0.059 0.118-0.177 0.65-0.768 1.3-1.477 2.127-2.127 0.059-0.059 0.177-0.059 0.236-0.118 0.591-0.473 1.241-0.945 2.009-1.359 0.059 0 0.118 0 0.177-0.059 0.65-0.295 1.3-0.473 2.009-0.709 0.354-0.118 0.709-0.295 0.945-0.354 0.709-0.177 1.477-0.236 2.245-0.295 0.236 0 0.532-0.059 0.827-0.059 1.418 0 2.658 0.236 4.017 0.591 0.354 0.177 0.709 0.354 1.063 0.532 0.945 0.354 1.772 0.768 2.599 1.359 0.177 0.118 0.473 0.177 0.65 0.295 0.414 0.354 0.709 0.709 1.063 1.004 0.118 0.177 0.354 0.354 0.591 0.591 0.768 0.886 1.477 1.831 1.95 2.777l0.118 0.118 50.747 97.595c3.426 6.676 0.886 14.828-5.79 18.255z" />
<glyph unicode="&#xe909;" glyph-name="icon-ship-product" d="M737.113 196.495h-186.846v73.438c50.33 17.894 86.554 65.877 86.554 122.274 0 55.791-35.456 103.313-84.949 121.626v72.132h185.242v-389.47zM285.486 585.965h185.242v-69.214c-53.948-15.735-93.559-65.553-93.559-124.544 0-59.597 40.431-109.815 95.206-125.022v-70.69h-186.889v389.47zM345.185 644.76c0.333 0 0.631-0.094 1.015-0.094h130.15l-3.755-29.303h-161.877l34.466 29.397zM400.242 691.668h82.125l-2.261-17.655h-100.548l20.685 17.655zM643.092 674.012h-100.582l-2.27 17.655h82.167l20.685-17.655zM523.933 644.666l3.746-29.303h-32.751l3.738 29.303h25.267zM517.917 691.668l2.261-17.655h-17.758l2.253 17.655h13.244zM506.969 522.008c-4.787 0-9.498-0.307-14.157-0.819v64.777h36.975v-66.091c-7.424 1.314-15.019 2.133-22.818 2.133zM553.757 303.537l-20.574 20.565c26.112 10.010 44.988 34.577 46.558 63.838h-31.616c-2.202-20.966-19.661-37.555-41.361-37.555h-0.162c-21.7 0.162-39.159 16.589-41.199 37.555h-31.77c1.877-33.485 26.257-61.022 58.505-67.593l27.554-27.563c-4.173-0.529-8.397-0.896-12.723-0.896-55.279 0-100.275 45.005-100.275 100.318 0 55.296 44.996 100.301 100.275 100.301 55.339 0 100.275-45.005 100.275-100.301 0-38.417-21.7-71.817-53.487-88.67zM493.571 197.289v65.758c4.412-0.452 8.875-0.691 13.397-0.691 7.552 0 14.899 0.785 22.101 2.022v-67.089h-35.499zM677.507 644.76l34.466-29.397h-161.92l-3.772 29.303h130.406c0.29 0 0.529 0.094 0.819 0.094zM766.211 604.15c-0.102 0.247-0.196 0.486-0.196 0.725-0.384 1.109-0.87 2.21-1.399 3.132-0.102 0.239-0.196 0.427-0.29 0.623-0.777 1.109-1.638 2.116-2.56 2.935-0.145 0.094-0.196 0.188-0.29 0.29l-124.041 105.702c-2.654 2.261-6.042 3.507-9.617 3.507h-233.037c-3.533 0-6.912-1.246-9.626-3.507l-124.032-105.702c-0.051-0.102-0.102-0.196-0.196-0.29-0.964-0.819-1.835-1.826-2.56-2.935-0.094-0.196-0.239-0.384-0.341-0.623-0.572-0.922-0.964-2.022-1.348-3.132-0.051-0.239-0.145-0.478-0.196-0.725-0.29-1.101-0.478-2.261-0.478-3.456v-418.825c0-8.132 6.622-14.72 14.737-14.72h481.161c8.124 0 14.746 6.588 14.746 14.72v418.825c0 1.195-0.196 2.355-0.435 3.456zM506.996 411.524c-12.151 0-22.016-9.856-22.016-22.016 0-12.151 9.865-22.007 22.016-22.007 12.16 0 22.007 9.856 22.007 22.007 0 12.16-9.847 22.016-22.007 22.016zM535.241 459.216l-9.907-29.943c5.555-2.415 10.394-6.007 14.387-10.411l25.967 18.534c-8.047 9.651-18.423 17.203-30.447 21.82zM433.625 393.183h31.377c0.606 6.281 2.415 12.134 5.308 17.323l-25.489 19.362c-6.571-10.692-10.47-23.228-11.196-36.685zM569.167 429.866l-25.489-19.362c2.893-5.188 4.702-11.042 5.308-17.323h31.377c-0.725 13.457-4.625 26.001-11.196 36.685zM478.75 459.216c-12.023-4.617-22.4-12.169-30.447-21.828l25.967-18.526c3.994 4.403 8.832 7.987 14.387 10.411l-9.907 29.943zM506.725 432.55c2.91 0 5.675-0.572 8.405-1.246l9.318 31.539c-5.692 1.69-11.554 2.901-17.724 2.901-6.178 0-12.032-1.212-17.724-2.901l9.318-31.539c2.722 0.674 5.487 1.246 8.405 1.246zM655.542 481.953l37.248 37.214v-15.164c0-6.025 4.932-10.948 11.008-10.948 6.033 0 10.923 4.924 10.923 10.948v41.668c0 1.382-0.29 2.722-0.768 3.968 0 0.043 0 0.094-0.051 0.145-1.101 2.722-3.302 4.881-5.931 5.973-0.051 0.051-0.154 0.051-0.154 0.051-1.289 0.529-2.628 0.811-4.019 0.811h-41.651c-6.033 0-10.965-4.924-10.965-10.948 0-6.076 4.932-10.957 10.965-10.957h15.181l-37.299-37.308c-2.108-2.108-3.209-4.932-3.209-7.706 0-2.816 1.101-5.598 3.209-7.748 4.309-4.301 11.204-4.301 15.514 0z" />
<glyph unicode="&#xe90a;" d="M509.738 605.253c-53.184 0-96.302-43.117-96.302-96.309 0-53.184 43.117-96.294 96.302-96.294 53.192 0 96.302 43.109 96.302 96.294 0 53.192-43.109 96.309-96.302 96.309z" />
<glyph unicode="&#xe90b;" glyph-name="icon-write-recenssion-main" d="M487.082 348.037h319.933c1.396 22.238 1.128 75.558-29.373 109.831-18.204 20.459-44.892 31.186-79.366 32.023l-43.764-32.703c-4.403-3.349-10.525-3.349-14.928 0l-43.764 32.703c-34.474-0.837-61.162-11.564-79.366-32.023-30.5-34.273-30.715-87.593-29.373-109.831zM818.184 324.072h-342.271c-6.122 0-11.33 4.395-12.243 10.256-0.483 3.506-12.351 86.755 34.098 139.081 23.788 26.843 58.155 40.447 102.241 40.447 2.631 0 5.316-0.89 7.41-2.459l39.629-29.616 39.575 29.616c2.202 1.57 4.833 2.459 7.518 2.459 44.032 0 78.345-13.605 102.187-40.447 46.395-52.325 34.582-135.575 34.098-139.081-0.913-5.86-6.122-10.256-12.243-10.256zM645.132 670.727c-36.461 0-66.102-28.884-66.102-64.412s29.641-64.465 66.102-64.465c36.515 0 66.156 28.936 66.156 64.465s-29.641 64.412-66.156 64.412zM645.132 517.832c-49.993 0-90.696 39.715-90.696 88.482 0 48.715 40.703 88.377 90.696 88.377 50.047 0 90.75-39.663 90.75-88.377 0-48.767-40.703-88.482-90.75-88.482zM192.318 722.795c-30.769 0-56.812-39.663-56.812-86.546 0-46.936 26.044-86.598 56.812-86.598h252.381c8.86 0 18.794-5.913 35.494-16.535 6.283-3.924 16.485-10.413 23.412-13.657-0.859 7.483-3.651 18.994-5.477 26.686-5.37 22.343-8.431 36.471-4.672 46.099 5.316 13.343 8.108 28.517 8.108 44.006 0 46.883-26.097 86.546-56.866 86.546h-252.381zM509.297 493.611c-10.954 0-23.949 7.692-42.475 19.413-7.625 4.814-19.063 12.087-22.768 12.715l-251.736-0.052c-44.892 0-81.406 49.604-81.406 110.563 0 61.953 35.763 110.511 81.406 110.511h252.381c45.643 0 81.406-48.558 81.406-110.511 0-18.418-3.329-36.575-9.719-52.587-0.967-4.238 3.222-21.663 5.692-32.075 6.122-25.535 10.525-43.901 0.107-53.319-2.363-2.145-6.551-4.657-12.888-4.657zM449.011 656.060h-260.972c-6.82 0-12.297 5.39-12.297 11.982s5.477 11.982 12.297 11.982h260.972c6.766 0 12.297-5.39 12.297-11.982s-5.531-11.982-12.297-11.982zM449.011 592.443h-260.972c-6.82 0-12.297 5.39-12.297 11.982s5.477 11.982 12.297 11.982h260.972c6.766 0 12.297-5.39 12.297-11.982s-5.531-11.982-12.297-11.982zM394.566 165.254h499.391v156.139h-499.391v-156.139zM906.254 141.289h-523.931c-6.82 0-12.351 5.39-12.351 11.982v180.104c0 6.645 5.531 11.982 12.351 11.982h523.931c6.82 0 12.351-5.337 12.351-11.982v-180.104c0-6.593-5.531-11.982-12.351-11.982zM425.571 279.972c-6.82 0-12.512 5.39-12.512 11.982 0 6.541 5.262 11.93 12.082 11.93h0.43c6.766 0 12.297-5.39 12.297-11.93 0-6.593-5.531-11.982-12.297-11.982zM488.548 279.972c-6.82 0-12.673 5.39-12.673 11.982 0 6.541 5.048 11.93 11.814 11.93h0.859c6.766 0 12.297-5.39 12.297-11.93 0-6.593-5.531-11.982-12.297-11.982zM551.483 279.972c-6.766 0-12.673 5.39-12.673 11.982 0 6.541 5.101 11.93 11.867 11.93h0.805c6.82 0 12.297-5.39 12.297-11.93 0-6.593-5.477-11.982-12.297-11.982zM614.47 279.972c-6.82 0-12.78 5.39-12.78 11.982 0 6.541 5.155 11.93 11.921 11.93h0.859c6.766 0 12.243-5.39 12.243-11.93 0-6.593-5.477-11.982-12.243-11.982zM677.458 279.972c-6.82 0-12.78 5.39-12.78 11.982 0 6.541 5.101 11.93 11.921 11.93h0.859c6.766 0 12.243-5.39 12.243-11.93 0-6.593-5.477-11.982-12.243-11.982zM740.338 279.972c-6.766 0-12.673 5.39-12.673 11.982 0 6.541 5.101 11.93 11.921 11.93h0.752c6.766 0 12.297-5.39 12.297-11.93 0-6.593-5.531-11.982-12.297-11.982zM803.272 279.972c-6.766 0-12.673 5.39-12.673 11.982 0 6.541 5.155 11.93 11.921 11.93h0.752c6.82 0 12.351-5.39 12.351-11.93 0-6.593-5.531-11.982-12.351-11.982zM865.906 279.972c-6.82 0-12.512 5.39-12.512 11.982 0 6.541 5.262 11.93 12.082 11.93h0.43c6.766 0 12.297-5.39 12.297-11.93 0-6.593-5.531-11.982-12.297-11.982zM425.571 231.325c-6.82 0-12.512 5.442-12.512 11.982 0 6.593 5.262 11.982 12.082 11.982h0.43c6.766 0 12.297-5.39 12.297-11.982 0-6.541-5.531-11.982-12.297-11.982zM488.548 231.325c-6.82 0-12.673 5.442-12.673 11.982 0 6.593 5.048 11.982 11.814 11.982h0.859c6.766 0 12.297-5.39 12.297-11.982 0-6.541-5.531-11.982-12.297-11.982zM551.483 231.325c-6.766 0-12.673 5.442-12.673 11.982 0 6.593 5.101 11.982 11.867 11.982h0.805c6.82 0 12.297-5.39 12.297-11.982 0-6.541-5.477-11.982-12.297-11.982zM614.47 231.325c-6.82 0-12.78 5.442-12.78 11.982 0 6.593 5.155 11.982 11.921 11.982h0.859c6.766 0 12.243-5.39 12.243-11.982 0-6.541-5.477-11.982-12.243-11.982zM677.458 231.325c-6.82 0-12.78 5.442-12.78 11.982 0 6.593 5.101 11.982 11.921 11.982h0.859c6.766 0 12.243-5.39 12.243-11.982 0-6.541-5.477-11.982-12.243-11.982zM740.338 231.325c-6.766 0-12.673 5.442-12.673 11.982 0 6.593 5.101 11.982 11.921 11.982h0.752c6.766 0 12.297-5.39 12.297-11.982 0-6.541-5.531-11.982-12.297-11.982zM803.272 231.325c-6.766 0-12.673 5.442-12.673 11.982 0 6.593 5.155 11.982 11.921 11.982h0.752c6.82 0 12.351-5.39 12.351-11.982 0-6.541-5.531-11.982-12.351-11.982zM865.906 231.325c-6.82 0-12.512 5.442-12.512 11.982 0 6.593 5.262 11.982 12.082 11.982h0.43c6.766 0 12.297-5.39 12.297-11.982 0-6.541-5.531-11.982-12.297-11.982zM755.938 182.783h-220.806c-6.82 0-12.351 5.39-12.351 11.982 0 6.541 5.531 11.982 12.351 11.982h220.806c6.766 0 12.297-5.442 12.297-11.982 0-6.593-5.531-11.982-12.297-11.982zM425.571 182.783c-6.82 0-12.512 5.39-12.512 11.982 0 6.541 5.262 11.982 12.082 11.982h0.43c6.766 0 12.297-5.442 12.297-11.982 0-6.593-5.531-11.982-12.297-11.982zM479.951 182.783c-6.82 0-12.512 5.39-12.512 11.982 0 6.541 5.262 11.982 12.028 11.982h0.483c6.766 0 12.297-5.442 12.297-11.982 0-6.593-5.531-11.982-12.297-11.982zM811.526 182.783c-6.766 0-12.458 5.39-12.458 11.982 0 6.541 5.316 11.982 12.082 11.982h0.376c6.82 0 12.297-5.442 12.297-11.982 0-6.593-5.477-11.982-12.297-11.982zM865.906 182.783c-6.82 0-12.512 5.39-12.512 11.982 0 6.541 5.262 11.982 12.082 11.982h0.43c6.766 0 12.297-5.442 12.297-11.982 0-6.593-5.531-11.982-12.297-11.982zM398.988 446.729l15.443-6.856-2.049 16.158 11.593 11.921-16.709 3.13-8.278 14.223-8.278-14.223-16.709-3.13 11.593-11.921-2.049-16.158 15.443 6.856zM385.608 421.971c-7.266-3.226-15.893-0.21-19.267 6.736-1.139 2.344-1.57 4.945-1.244 7.51l1.775 13.999-10.045 10.328c-5.455 5.609-5.12 14.383 0.748 19.597 1.98 1.759 4.435 2.955 7.087 3.452l14.477 2.712 7.172 12.323c3.895 6.692 12.728 9.099 19.729 5.376 2.362-1.256 4.31-3.118 5.624-5.376l7.172-12.323 14.477-2.712c7.862-1.473 12.987-8.759 11.446-16.275-0.52-2.536-1.771-4.882-3.611-6.775l-10.045-10.328 1.775-13.999c0.964-7.603-4.702-14.513-12.656-15.435-2.684-0.311-5.405 0.101-7.856 1.189l-13.38 5.94-13.38-5.94zM299.797 446.729l15.443-6.856-2.049 16.158 11.593 11.921-16.709 3.13-8.278 14.223-8.278-14.223-16.709-3.13 11.593-11.921-2.049-16.158 15.443 6.856zM286.417 421.971c-7.266-3.226-15.893-0.21-19.267 6.736-1.139 2.344-1.57 4.945-1.244 7.51l1.775 13.999-10.045 10.328c-5.455 5.609-5.12 14.383 0.748 19.597 1.98 1.759 4.435 2.955 7.087 3.452l14.477 2.712 7.172 12.323c3.895 6.692 12.728 9.099 19.729 5.376 2.362-1.256 4.31-3.118 5.624-5.376l7.172-12.323 14.477-2.712c7.862-1.473 12.987-8.759 11.446-16.275-0.52-2.536-1.771-4.882-3.611-6.775l-10.045-10.328 1.775-13.999c0.964-7.603-4.702-14.513-12.656-15.435-2.684-0.311-5.405 0.101-7.856 1.189l-13.38 5.94-13.38-5.94zM185.163 439.873l15.443 6.856 15.443-6.856-2.049 16.158 11.593 11.921-16.709 3.13-8.278 14.223-8.278-14.223-16.709-3.13 11.593-11.921-2.049-16.158zM187.226 421.971c-7.266-3.226-15.893-0.21-19.267 6.736-1.139 2.344-1.57 4.945-1.244 7.51l1.775 13.999-10.045 10.328c-5.455 5.609-5.12 14.383 0.748 19.597 1.98 1.759 4.435 2.955 7.087 3.452l14.477 2.712 7.172 12.323c3.895 6.692 12.728 9.099 19.729 5.376 2.362-1.256 4.31-3.118 5.624-5.376l7.172-12.323 14.477-2.712c7.862-1.473 12.987-8.759 11.446-16.275-0.52-2.536-1.771-4.882-3.611-6.775l-10.045-10.328 1.775-13.999c0.964-7.603-4.702-14.513-12.656-15.435-2.684-0.311-5.405 0.101-7.856 1.189l-13.38 5.94-13.38-5.94z" />
<glyph unicode="&#xe90c;" glyph-name="icon-review-declined" d="M463.791 547.972h-141.589c-5.779 0-10.503 5.072-10.503 11.277 0 6.254 4.724 11.277 10.503 11.277h141.589c5.779 0 10.503-5.023 10.503-11.277 0-6.205-4.724-11.277-10.503-11.277zM496.057 465.846h-173.649c-5.893 0-10.71 5.122-10.71 11.277 0 6.254 4.817 11.327 10.71 11.327h173.649c5.94 0 10.757-5.072 10.757-11.327 0-6.156-4.817-11.277-10.757-11.277zM626.171 383.818h-303.706c-5.898 0-10.766 5.072-10.766 11.277s4.868 11.277 10.766 11.277h303.706c5.945 0 10.72-5.072 10.72-11.277s-4.775-11.277-10.72-11.277zM653.126 691.948c-64.755 0-117.428-53.186-117.428-118.572 0-65.434 52.673-118.714 117.428-118.714 64.802 0 117.475 53.281 117.475 118.714 0 65.386-52.673 118.572-117.475 118.572zM653.126 425.591c-80.614 0-146.313 66.291-146.313 147.785 0 81.446 65.699 147.69 146.313 147.69 80.708 0 146.36-66.244 146.36-147.69 0-81.494-65.652-147.785-146.36-147.785zM689.060 435.211v-54.885c0-22.115-18.194-40.157-40.494-40.157h-236.946c-3.725 0-7.258-1.373-10.028-3.883l-66.805-62.509v51.949c0 8.003-6.542 14.443-14.612 14.443h-20.151c-22.3 0-40.494 18.042-40.494 40.157v186.817c0 22.162 18.194 40.11 40.494 40.11h215.506c1.958 10.087 4.918 19.747 8.882 28.934h-224.387c-38.393 0-69.623-30.971-69.623-69.044v-186.817c0-38.074 31.23-69.044 69.623-69.044h5.587v-70.986c0-5.73 3.438-11.034 8.786-13.26 1.862-0.805 3.82-1.231 5.778-1.231 3.677 0 7.258 1.373 9.98 3.931l87.291 81.546h231.12c38.393 0 69.623 30.971 69.623 69.044v63.646c-9.264-3.836-19.005-6.819-29.129-8.761zM738.389 215.82l20.893-9.598-2.772 22.621 15.685 16.689-22.607 4.382-11.199 19.912-11.199-19.912-22.607-4.382 15.685-16.689-2.772-22.621 20.893 9.598zM720.286 181.16c-9.831-4.516-21.502-0.294-26.068 9.43-1.541 3.281-2.124 6.922-1.683 10.514l2.402 19.599-13.59 14.459c-7.38 7.853-6.927 20.136 1.011 27.436 2.679 2.463 6 4.137 9.589 4.833l19.587 3.797 9.703 17.252c5.27 9.369 17.22 12.739 26.693 7.527 3.196-1.759 5.832-4.366 7.61-7.527l9.703-17.252 19.587-3.797c10.637-2.062 17.57-12.263 15.486-22.785-0.703-3.55-2.396-6.835-4.886-9.484l-13.59-14.459 2.402-19.599c1.304-10.644-6.361-20.318-17.122-21.608-3.631-0.435-7.312 0.141-10.629 1.665l-18.102 8.316-18.102-8.316zM604.189 215.82l20.893-9.598-2.772 22.621 15.685 16.689-22.607 4.382-11.199 19.912-11.199-19.912-22.607-4.382 15.685-16.689-2.772-22.621 20.893 9.598zM586.087 181.16c-9.831-4.516-21.502-0.294-26.068 9.43-1.541 3.281-2.124 6.922-1.683 10.514l2.402 19.599-13.59 14.459c-7.38 7.853-6.927 20.136 1.011 27.436 2.679 2.463 6 4.137 9.589 4.833l19.587 3.797 9.703 17.252c5.27 9.369 17.22 12.739 26.693 7.527 3.196-1.759 5.832-4.366 7.61-7.527l9.703-17.252 19.587-3.797c10.637-2.062 17.57-12.263 15.486-22.785-0.703-3.55-2.396-6.835-4.886-9.484l-13.59-14.459 2.402-19.599c1.304-10.644-6.361-20.318-17.122-21.608-3.631-0.435-7.312 0.141-10.629 1.665l-18.102 8.316-18.102-8.316zM449.096 206.222l20.893 9.598 20.893-9.598-2.772 22.621 15.685 16.689-22.607 4.382-11.199 19.912-11.199-19.912-22.607-4.382 15.685-16.689-2.772-22.621zM451.887 181.16c-9.831-4.516-21.502-0.294-26.068 9.43-1.541 3.281-2.124 6.922-1.683 10.514l2.402 19.599-13.59 14.459c-7.38 7.853-6.927 20.136 1.011 27.436 2.679 2.463 6 4.137 9.589 4.833l19.587 3.797 9.703 17.252c5.27 9.369 17.22 12.739 26.693 7.527 3.196-1.759 5.832-4.366 7.61-7.527l9.703-17.252 19.587-3.797c10.637-2.062 17.57-12.263 15.486-22.785-0.703-3.55-2.396-6.835-4.886-9.484l-13.59-14.459 2.402-19.599c1.304-10.644-6.361-20.318-17.122-21.608-3.631-0.435-7.312 0.141-10.629 1.665l-18.102 8.316-18.102-8.316zM595.477 610.954c-4.999 4.999-4.999 13.103 0 18.102s13.103 4.999 18.102 0l96.544-96.544c4.999-4.999 4.999-13.103 0-18.102s-13.103-4.999-18.102 0l-96.544 96.544zM610.562 513.161c-4.999-4.999-13.103-4.999-18.102 0s-4.999 13.103 0 18.102l96.544 96.544c4.999 4.999 13.103 4.999 18.102 0s4.999-13.103 0-18.102l-96.544-96.544z" />
<glyph unicode="&#xe90d;" glyph-name="icon-review-accepted" d="M463.791 547.972h-141.589c-5.779 0-10.503 5.072-10.503 11.277 0 6.254 4.724 11.277 10.503 11.277h141.589c5.779 0 10.503-5.023 10.503-11.277 0-6.205-4.724-11.277-10.503-11.277zM496.057 465.846h-173.649c-5.893 0-10.71 5.122-10.71 11.277 0 6.254 4.817 11.327 10.71 11.327h173.649c5.94 0 10.757-5.072 10.757-11.327 0-6.156-4.817-11.277-10.757-11.277zM626.171 383.818h-303.706c-5.898 0-10.766 5.072-10.766 11.277s4.868 11.277 10.766 11.277h303.706c5.945 0 10.72-5.072 10.72-11.277s-4.775-11.277-10.72-11.277zM653.126 691.948c-64.755 0-117.428-53.186-117.428-118.572 0-65.434 52.673-118.714 117.428-118.714 64.802 0 117.475 53.281 117.475 118.714 0 65.386-52.673 118.572-117.475 118.572zM653.126 425.591c-80.614 0-146.313 66.291-146.313 147.785 0 81.446 65.699 147.69 146.313 147.69 80.708 0 146.36-66.244 146.36-147.69 0-81.494-65.652-147.785-146.36-147.785zM689.060 435.211v-54.885c0-22.115-18.194-40.157-40.494-40.157h-236.946c-3.725 0-7.258-1.373-10.028-3.883l-66.805-62.509v51.949c0 8.003-6.542 14.443-14.612 14.443h-20.151c-22.3 0-40.494 18.042-40.494 40.157v186.817c0 22.162 18.194 40.11 40.494 40.11h215.506c1.958 10.087 4.918 19.747 8.882 28.934h-224.387c-38.393 0-69.623-30.971-69.623-69.044v-186.817c0-38.074 31.23-69.044 69.623-69.044h5.587v-70.986c0-5.73 3.438-11.034 8.786-13.26 1.862-0.805 3.82-1.231 5.778-1.231 3.677 0 7.258 1.373 9.98 3.931l87.291 81.546h231.12c38.393 0 69.623 30.971 69.623 69.044v63.646c-9.264-3.836-19.005-6.819-29.129-8.761zM650.566 504.865c-4.138 0-8.138 1.914-10.759 5.264l-48.507 60.971c-4.92 6.174-4.046 15.362 1.931 20.531 5.931 5.121 14.805 4.259 19.771-1.962l35.173-44.269 43.633 83.225c3.724 7.035 12.276 9.619 19.081 5.791 6.759-3.877 9.288-12.73 5.609-19.813l-53.61-102.129c-2.207-4.259-6.299-7.083-10.989-7.514-0.414-0.048-0.828-0.096-1.333-0.096zM738.389 215.82l20.893-9.598-2.772 22.621 15.685 16.689-22.607 4.382-11.199 19.912-11.199-19.912-22.607-4.382 15.685-16.689-2.772-22.621 20.893 9.598zM720.286 181.16c-9.831-4.516-21.502-0.294-26.068 9.43-1.541 3.281-2.124 6.922-1.683 10.514l2.402 19.599-13.59 14.459c-7.38 7.853-6.927 20.136 1.011 27.436 2.679 2.463 6 4.137 9.589 4.833l19.587 3.797 9.703 17.252c5.27 9.369 17.22 12.739 26.693 7.527 3.196-1.759 5.832-4.366 7.61-7.527l9.703-17.252 19.587-3.797c10.637-2.062 17.57-12.263 15.486-22.785-0.703-3.55-2.396-6.835-4.886-9.484l-13.59-14.459 2.402-19.599c1.304-10.644-6.361-20.318-17.122-21.608-3.631-0.435-7.312 0.141-10.629 1.665l-18.102 8.316-18.102-8.316zM604.189 215.82l20.893-9.598-2.772 22.621 15.685 16.689-22.607 4.382-11.199 19.912-11.199-19.912-22.607-4.382 15.685-16.689-2.772-22.621 20.893 9.598zM586.087 181.16c-9.831-4.516-21.502-0.294-26.068 9.43-1.541 3.281-2.124 6.922-1.683 10.514l2.402 19.599-13.59 14.459c-7.38 7.853-6.927 20.136 1.011 27.436 2.679 2.463 6 4.137 9.589 4.833l19.587 3.797 9.703 17.252c5.27 9.369 17.22 12.739 26.693 7.527 3.196-1.759 5.832-4.366 7.61-7.527l9.703-17.252 19.587-3.797c10.637-2.062 17.57-12.263 15.486-22.785-0.703-3.55-2.396-6.835-4.886-9.484l-13.59-14.459 2.402-19.599c1.304-10.644-6.361-20.318-17.122-21.608-3.631-0.435-7.312 0.141-10.629 1.665l-18.102 8.316-18.102-8.316zM449.096 206.222l20.893 9.598 20.893-9.598-2.772 22.621 15.685 16.689-22.607 4.382-11.199 19.912-11.199-19.912-22.607-4.382 15.685-16.689-2.772-22.621zM451.887 181.16c-9.831-4.516-21.502-0.294-26.068 9.43-1.541 3.281-2.124 6.922-1.683 10.514l2.402 19.599-13.59 14.459c-7.38 7.853-6.927 20.136 1.011 27.436 2.679 2.463 6 4.137 9.589 4.833l19.587 3.797 9.703 17.252c5.27 9.369 17.22 12.739 26.693 7.527 3.196-1.759 5.832-4.366 7.61-7.527l9.703-17.252 19.587-3.797c10.637-2.062 17.57-12.263 15.486-22.785-0.703-3.55-2.396-6.835-4.886-9.484l-13.59-14.459 2.402-19.599c1.304-10.644-6.361-20.318-17.122-21.608-3.631-0.435-7.312 0.141-10.629 1.665l-18.102 8.316-18.102-8.316z" />
<glyph unicode="&#xe90e;" glyph-name="icon-aplication-not-approved" d="M184.12 820.888c-39.172 0-70.923-32.603-70.923-72.687v-52.736c0-40.084 31.751-72.747 70.923-72.747h309.785c9.489 0 21.715-5.292 41.118-14.051 10.036-4.562 22.931-10.34 31.568-12.895-1.338 5.718-3.893 13.26-5.718 18.491-6.326 19.16-11.374 34.306-5.292 45.558 6.022 10.766 9.185 23.114 9.185 35.644v52.736c0 40.084-31.812 72.687-70.862 72.687h-309.785zM573.161 566.637c-12.956 0-30.778 8.090-49.755 16.666-9.975 4.562-25.121 11.435-29.561 11.618h-309.724c-54.5 0-98.781 45.133-98.781 100.545v52.736c0 55.473 44.281 100.606 98.781 100.606h309.785c54.378 0 98.72-45.133 98.72-100.606v-52.736c0-16.727-4.136-33.211-11.861-47.931 0-4.562 4.075-16.97 6.63-24.452 7.36-22.080 14.294-42.943-1.156-52.918-3.589-2.251-8.029-3.528-13.078-3.528zM772.657 363.571c0-11.131-6.326-20.863-15.511-25.851v145.495c9.185-4.988 15.511-14.659 15.511-25.851v-93.793zM729.288 334.253c-3.467 0.122-6.265 3.163-6.265 7.056v138.378c0 3.832 2.798 6.873 6.265 7.056v-152.49zM756.964 512.837c-6.022 88.927-76.944 160.093-165.75 166.419-1.642-9.732-4.623-19.221-8.881-28.162 76.519-2.007 139.047-61.312 145.981-136.614-18.43-0.669-33.15-15.936-33.15-34.792v-138.378c0-18.552 14.294-33.637 32.298-34.731-9.854-73.538-72.808-130.532-149.084-130.532v-28.649c92.455 0 168.852 70.436 178.219 160.58 25.060 6.083 43.916 28.71 43.916 55.595v93.793c0 26.824-18.613 49.39-43.551 55.473zM433.657 341.296c0-3.832-2.859-6.934-6.326-7.056v152.551c3.467-0.182 6.326-3.285 6.326-7.117v-138.378zM399.473 337.708c-9.185 4.988-15.45 14.781-15.45 25.851v93.793c0 11.192 6.265 20.924 15.45 25.851v-145.495zM428.365 514.528c2.798 30.291 14.659 57.967 32.785 80.411h-34.975c-14.963-24.209-24.391-52.128-26.459-82.115-24.999-6.083-43.551-28.588-43.551-55.473v-93.793c0-31.508 25.668-57.176 57.237-57.176h13.747c18.978 0 34.366 15.693 34.366 34.914v138.378c0 18.856-14.72 34.123-33.15 34.853zM709.778 727.664c-0.995-6.32-1.512-12.798-1.512-19.397 0-3.497 0.145-6.959 0.429-10.382-35.773 15.845-74.94 25.382-116.077 27.191v23.114c0 1.581-0.122 3.163-0.243 4.744 41.359-1.641 80.9-10.47 117.403-25.27zM873.606 591.703c35.153-54.637 55.561-119.623 55.561-189.307 0-193.425-157.417-350.781-350.781-350.781-193.486 0-350.903 157.356-350.903 350.781 0 71.044 21.289 137.223 57.724 192.513h33.941c-40.084-53.77-63.806-120.374-63.806-192.513 0-178.037 144.887-322.923 323.045-322.923 177.976 0 322.923 144.887 322.923 322.923 0 67.796-20.988 130.764-56.805 182.762 10.109 1.015 19.859 3.246 29.102 6.545zM498.941 708.209h-320.369c-7.664 0-13.868 6.265-13.868 13.929s6.204 13.929 13.868 13.929h320.369c7.725 0 13.929-6.265 13.929-13.929s-6.204-13.929-13.929-13.929zM498.941 652.255h-320.369c-7.664 0-13.868 6.265-13.868 13.929s6.204 13.868 13.868 13.868h320.369c7.725 0 13.929-6.204 13.929-13.868s-6.204-13.929-13.929-13.929zM498.941 764.162h-320.369c-7.664 0-13.868 6.265-13.868 13.929s6.204 13.929 13.868 13.929h320.369c7.725 0 13.929-6.265 13.929-13.929s-6.204-13.929-13.929-13.929zM547.115 483.914c0-8.029-6.387-14.416-14.355-14.416s-14.416 6.387-14.416 14.416c0 7.907 6.448 14.294 14.416 14.294s14.355-6.387 14.355-14.294zM597.187 483.914c0-8.029-6.448-14.416-14.355-14.416s-14.416 6.387-14.416 14.416c0 7.907 6.508 14.294 14.416 14.294s14.355-6.387 14.355-14.294zM647.319 483.914c0-8.029-6.448-14.416-14.355-14.416-7.968 0-14.416 6.387-14.416 14.416 0 7.907 6.448 14.294 14.416 14.294 7.907 0 14.355-6.387 14.355-14.294zM582.814 184.476c-12.591 0-22.87-10.219-22.87-22.749 0-12.591 10.28-22.87 22.87-22.87s22.81 10.28 22.81 22.87c0 12.53-10.219 22.749-22.81 22.749zM582.814 110.998c-27.919 0-50.668 22.749-50.668 50.729 0 27.858 22.749 50.668 50.668 50.668 27.98 0 50.668-22.81 50.668-50.668 0-27.98-22.688-50.729-50.668-50.729zM832 571.733c-75.405 0-136.533 61.128-136.533 136.533s61.128 136.533 136.533 136.533c75.405 0 136.533-61.128 136.533-136.533s-61.128-136.533-136.533-136.533zM832 597.333c61.267 0 110.933 49.667 110.933 110.933s-49.667 110.933-110.933 110.933c-61.267 0-110.933-49.667-110.933-110.933s49.667-110.933 110.933-110.933zM774.677 747.488c-4.999 4.999-4.999 13.103 0 18.102s13.103 4.999 18.102 0l96.544-96.544c4.999-4.999 4.999-13.103 0-18.102s-13.103-4.999-18.102 0l-96.544 96.544zM789.762 649.694c-4.999-4.999-13.103-4.999-18.102 0s-4.999 13.103 0 18.102l96.544 96.544c4.999 4.999 13.103 4.999 18.102 0s4.999-13.103 0-18.102l-96.544-96.544z" />
<glyph unicode="&#xe90f;" glyph-name="icon-unpacking" d="M806.904 380.623v45.005l64.367-22.562-64.367-22.443zM794.087 457.252l-43.75 15.283c5.069 16.102 8.567 32.913 10.283 50.253l110.652-38.613-77.184-26.923zM781.27 371.671l-152.533-53.18-9.54 3.328c38.545 18.364 71.603 46.336 96.188 80.768l65.886 23.040v-53.956zM781.27 218.131l-255.753-89.284v169.139c19.516 1.058 38.417 4.403 56.491 9.685l42.53-14.874c1.399-0.444 2.799-0.725 4.198-0.725 1.51 0 2.91 0.282 4.309 0.725l148.224 51.721v-126.387zM244.071 218.131v126.387l148.335-51.721c1.289-0.444 2.748-0.725 4.198-0.725 1.399 0 2.91 0.282 4.198 0.725l41.702 14.566c18.372-5.282 37.589-8.559 57.429-9.481v-169.037l-255.863 89.284zM154.121 484.175l108.766 37.897c1.758-17.314 5.316-34.091 10.428-50.176l-42.001-14.643-77.193 26.923zM218.488 380.623l-64.367 22.443 64.367 22.562v-45.005zM289.75 409.679l17.664-6.187c24.823-35.106 58.428-63.531 97.673-82.057l-8.482-2.944-152.533 53.231v53.905l45.679-15.949zM287.028 437.762l-16.87 5.888 12.203 4.224c1.485-3.413 3.038-6.784 4.668-10.112zM511.719 770.579c123.076 0 222.848-99.772 222.848-222.848s-99.772-222.857-222.848-222.857c-123.076 0-222.857 99.78-222.857 222.857s99.78 222.848 222.857 222.848zM741.343 448.463l13.841-4.813-19.191-6.699c1.877 3.78 3.669 7.62 5.35 11.511zM914.373 415.276l-81.382 28.373 81.382 28.442c5.154 1.783 8.567 6.605 8.567 12.083 0 5.436-3.413 10.3-8.567 12.092l-152.559 53.282c-0.99 137.31-112.563 248.32-250.095 248.32-137.771 0-249.506-111.394-250.112-249.020l-150.647-52.582c-5.086-1.792-8.559-6.656-8.559-12.092 0-5.478 3.473-10.3 8.559-12.083l81.451-28.442-81.451-28.373c-5.086-1.852-8.559-6.724-8.559-12.211 0-5.367 3.473-10.18 8.559-11.972l107.529-37.564v-144.469c0-5.427 3.473-10.351 8.627-12.143l281.549-98.244c1.237-0.444 2.688-0.717 4.036-0.717 1.399 0 2.739 0.273 4.028 0.717h0.171l281.387 98.244c5.146 1.792 8.619 6.716 8.619 12.143v144.469l107.469 37.564c5.154 1.792 8.567 6.605 8.567 11.972 0 5.487-3.413 10.359-8.567 12.211zM650.113 432.252l1.69-14.541-12.715 6.17-12.723-6.17 1.69 14.541-9.549 10.726 13.764 2.816 6.818 12.8 6.81-12.8 13.764-2.816-9.549-10.726zM667.35 457.058l-11.921 2.441-5.905 11.093c-1.084 2.022-2.688 3.703-4.634 4.838-5.769 3.345-13.039 1.178-16.247-4.838l-5.905-11.093-11.921-2.441c-2.185-0.452-4.207-1.519-5.837-3.106-4.83-4.693-5.111-12.595-0.614-17.638l8.269-9.293-1.459-12.604c-0.273-2.304 0.085-4.651 1.024-6.758 2.773-6.255 9.882-8.969 15.872-6.059l11.017 5.342 11.017-5.342c2.014-0.981 4.258-1.348 6.468-1.075 6.545 0.828 11.213 7.049 10.419 13.892l-1.459 12.604 8.269 9.293c1.519 1.698 2.551 3.814 2.978 6.093 1.263 6.767-2.953 13.321-9.429 14.652zM568.425 432.252l1.69-14.541-12.715 6.17-12.723-6.17 1.69 14.541-9.549 10.726 13.764 2.816 6.818 12.8 6.81-12.8 13.764-2.816-9.549-10.726zM585.671 457.058l-11.93 2.441-5.905 11.093c-1.084 2.022-2.688 3.703-4.634 4.838-5.769 3.345-13.039 1.178-16.247-4.838l-5.905-11.093-11.921-2.441c-2.185-0.452-4.207-1.519-5.837-3.106-4.83-4.693-5.111-12.595-0.614-17.638l8.269-9.293-1.459-12.604c-0.273-2.304 0.085-4.651 1.024-6.758 2.782-6.255 9.882-8.969 15.872-6.059l11.017 5.342 11.017-5.342c2.014-0.981 4.258-1.348 6.468-1.075 6.545 0.828 11.213 7.049 10.428 13.892l-1.468 12.604 8.269 9.293c1.519 1.698 2.551 3.814 2.978 6.093 1.263 6.767-2.953 13.321-9.421 14.652zM486.741 432.252l1.69-14.541-12.723 6.17-12.715-6.17 1.69 14.541-9.549 10.726 13.756 2.816 6.818 12.8 6.818-12.8 13.764-2.816-9.549-10.726zM503.979 457.058l-11.921 2.441-5.905 11.093c-1.084 2.022-2.688 3.703-4.634 4.838-5.769 3.345-13.039 1.178-16.247-4.838l-5.905-11.093-11.921-2.441c-2.185-0.452-4.215-1.519-5.845-3.106-4.83-4.693-5.103-12.595-0.614-17.638l8.277-9.293-1.459-12.604c-0.273-2.304 0.085-4.651 1.024-6.758 2.773-6.255 9.882-8.969 15.863-6.059l11.017 5.342 11.025-5.342c2.014-0.981 4.258-1.348 6.468-1.075 6.545 0.828 11.213 7.049 10.419 13.892l-1.459 12.604 8.269 9.293c1.519 1.698 2.543 3.814 2.978 6.093 1.263 6.767-2.953 13.321-9.429 14.652zM397.658 612.368h82.253c4.608 0 8.371 3.763 8.371 8.371 0 4.634-3.755 8.38-8.371 8.38h-82.253c-4.617 0-8.371-3.746-8.371-8.38 0-4.608 3.755-8.371 8.371-8.371zM397.658 570.139h98.927c4.625 0 8.405 3.772 8.405 8.371 0 4.642-3.763 8.405-8.405 8.405h-98.927c-4.617 0-8.371-3.763-8.371-8.405 0-4.591 3.763-8.371 8.371-8.371zM397.671 527.935h172.86c4.634 0 8.38 3.755 8.38 8.371 0 4.625-3.746 8.38-8.38 8.38h-172.86c-4.617 0-8.405-3.763-8.405-8.38 0-4.608 3.789-8.371 8.405-8.371zM366.533 631.085c0 11.196 9.114 20.292 20.318 20.292h117.632c-1.212-5.751-1.86-11.699-1.86-17.801 0-47.727 38.682-86.417 86.409-86.417 4.301 0 8.482 0.418 12.612 1.024v-22.212c0-11.179-9.139-20.318-20.318-20.318h-132.207c-2.645 0-5.163-0.981-7.134-2.782l-33.468-31.573v23.962c0 5.751-4.659 10.394-10.419 10.394h-11.247c-11.187 0-20.318 9.139-20.318 20.318v105.114zM589.031 701.792c37.683 0 68.224-30.541 68.224-68.215 0-37.683-30.541-68.224-68.224-68.224-37.675 0-68.215 30.541-68.215 68.224 0 37.675 30.541 68.215 68.215 68.215zM386.851 484.849h0.845v-37.658c0-4.156 2.483-7.962 6.298-9.557 1.297-0.572 2.697-0.87 4.105-0.87 2.645 0 5.205 1.007 7.125 2.833l48.051 45.252h128.051c22.673 0 41.114 18.449 41.114 41.122v27.895c31.138 13.065 53.009 43.827 53.009 79.71 0 47.718-38.69 86.409-86.417 86.409-33.818 0-63.019-19.473-77.21-47.787h-124.971c-22.673 0-41.122-18.441-41.122-41.114v-105.114c0-22.673 18.449-41.122 41.122-41.122zM579.379 598.643c1.766-2.159 4.463-3.422 7.287-3.422 0.307 0 0.529 0.017 0.939 0.060 3.123 0.282 5.897 2.108 7.407 4.89l31.053 56.858c2.492 4.599 0.794 10.351-3.789 12.877-4.608 2.492-10.385 0.811-12.902-3.763l-24.329-44.57-19.098 23.1c-3.354 4.036-9.353 4.608-13.38 1.263-4.045-3.354-4.634-9.327-1.297-13.346l28.109-33.946z" />
<glyph unicode="&#xe910;" d="M646.299 631.064l112.757 81.924c-34.943 42.663-79.992 76.067-132.214 96.471l-43.002-132.376c24.122-10.698 45.118-26.546 62.459-46.019z" />
<glyph unicode="&#xe911;" d="M351.174 601.277l-113.55 82.501c-29.263-45.534-46.634-98.965-49.875-156.29h139.773c2.686 26.746 10.783 51.684 23.652 73.789z" />
<glyph unicode="&#xe912;" d="M691.961 527.49h139.765c-3.24 57.325-20.62 110.756-49.875 156.29l-113.542-82.486c12.869-22.136 20.958-47.073 23.652-73.804z" />
<glyph unicode="&#xe913;" d="M435.639 677.087l-43.002 132.368c-52.222-20.396-97.279-53.808-132.222-96.471l112.757-81.916c17.348 19.473 38.345 35.313 62.467 46.019z" />
<glyph unicode="&#xe914;" d="M509.738 693.548c13.454 0 26.207-2.394 38.799-5.234l43.002 132.353c-26.269 7.073-53.3 12.176-81.801 12.176s-55.532-5.103-81.801-12.176l43.002-132.353c12.592 2.84 25.345 5.234 38.799 5.234z" />
<glyph unicode="&#xe915;" d="M774.682 58.86h-197.498l-131.66 132.353c-142.066 29.117-249.474 151.079-257.787 299.372h139.98c9.005-92.869 85.926-165.618 181.558-166.311h0.693c95.632 0 172.545 73.442 182.251 166.311h139.288c-6.935-129.582-90.090-238.383-205.126-282.747l148.301-148.978z" />
<glyph unicode="&#xe916;" glyph-name="icon-pen-tested" d="M775.25 328.246c-22.861 10.052-37.376 16.265-47.838 16.265h-95.189l16.623 45.355h85.009c6.699 0 12.169 5.47 12.169 12.22 0 6.699-5.47 12.177-12.169 12.177h-76.058l15.471 42.163h60.587c6.699 0 12.169 5.419 12.169 12.169 0 6.647-5.47 12.177-12.169 12.177h-51.618l-7.228-19.575 29.44 80.265-5.589-15.3h28.553c50.074 0 90.735-40.772 90.735-90.795 0-15.625-3.977-30.993-11.639-44.493-6.212-11.17-1.493-26.581 6.75-50.765 2.978-8.67 7.552-22.067 8.354-29.039-10.368 1.118-30.251 9.941-46.362 17.178zM561.388 222.031l-24.132 8.883 132.318 360.738 24.081-8.875-132.267-360.747zM488.402 133.148c-3.294 32.956-5.692 70.758-4.309 91.332l33.34-12.288 33.382-12.169c-12.39-16.964-39.185-44.493-62.413-66.876zM622.529 608.881l24.235-8.875-132.42-360.755-24.081 8.883 132.267 360.747zM351.297 344.485c-50.022 0-90.803 40.781-90.803 90.863 0 0.29 0.060 0.572 0.060 0.862 8.738-2.108 17.801-3.345 27.162-3.345 26.547 0 50.97 9.062 70.639 24.158 1.135-0.358 2.33-0.597 3.593-0.597h178.765l-15.462-42.163h-180.361c-6.75 0-12.169-5.478-12.169-12.177 0-6.75 5.419-12.22 12.169-12.22h171.409l-16.64-45.38h-148.361zM193.772 551.094c0 52.309 42.138 94.857 93.943 94.857 51.84 0 93.978-42.547 93.978-94.857 0-0.717-0.085-1.417-0.102-2.125-0.077-3.226-0.299-6.409-0.674-9.549-0.154-1.195-0.35-2.364-0.538-3.55-0.418-2.577-0.93-5.129-1.553-7.629-10.155-41.335-47.078-72.124-91.11-72.124-8.849 0-17.382 1.331-25.506 3.661-2.978 0.845-5.897 1.843-8.747 2.978-0.589 0.23-1.203 0.418-1.783 0.657-3.379 1.425-6.647 3.072-9.805 4.873-28.663 16.282-48.102 47.283-48.102 82.807zM566.277 526.142l2.705 7.356-19.337-52.727h-168.021c9.779 13.286 16.93 28.638 20.506 45.372h164.147zM660.434 712.169l71.125-26.095-29.449-80.384-71.134 26.044 29.457 80.435zM670.478 739.493c5.956 16.162 11.435 26.795 14.669 32.162l66.031-24.235c-0.913-6.221-3.669-17.869-9.566-34.022l-1.655-4.471-71.074 26.103 1.596 4.463zM836.332 347.975c-3.345 9.941-9.037 26.411-8.243 31.462 9.412 17.015 14.413 36.309 14.413 55.927 0 63.42-51.567 115.098-115.089 115.098h-19.661l12.962 35.345v0.051l43.75 119.185c20.523 55.927 8.559 60.39 1.971 62.737l-79.804 29.286c-1.323 0.478-3.183 0.802-4.565 0.802-5.265 0-16.111 0-34.449-49.971l-72.422-197.461h-170.428c0.009 0.222 0.034 0.435 0.034 0.657 0 65.152-52.514 118.153-117.086 118.153-64.486 0-117.052-53.001-117.052-118.153 0-46.652 26.982-86.955 65.911-106.172-0.256-3.166-0.427-6.349-0.427-9.574 0-63.479 51.669-115.149 115.149-115.149h139.435l4.898 13.321-32.427-88.414c-9.515-26.052 1.434-120.414 3.721-139.068 0.538-4.523 3.618-8.354 7.919-9.89 1.382-0.538 2.765-0.802 4.147-0.802 3.089 0 6.067 1.178 8.294 3.302 13.773 12.706 83.2 77.559 92.766 103.603l43.255 117.973h104.107c5.897 0 24.397-8.294 37.956-14.251 22.434-10.052 43.588-19.354 58.368-19.354 5.094 0 9.515 1.169 13.133 3.405 15.838 9.993 7.868 33.28-0.538 57.95zM273.288 500.129c2.5-3.055 6.323-4.847 10.325-4.847 0.435 0 0.742 0.026 1.331 0.085 4.42 0.393 8.354 2.987 10.487 6.921l43.989 80.555c3.533 6.511 1.126 14.66-5.359 18.244-6.537 3.524-14.72 1.143-18.287-5.333l-34.466-63.138-27.051 32.725c-4.753 5.717-13.252 6.519-18.953 1.783-5.734-4.753-6.562-13.21-1.843-18.91l39.825-48.085z" />
<glyph unicode="&#xe917;" horiz-adv-x="853" d="M0 960h853.333v-899.219c0-68.914-55.866-124.781-124.781-124.781h-728.553v1024z" />
<glyph unicode="&#xe918;" horiz-adv-x="853" d="M187.404 49.778h-21.023v60.62h-19v17.191h58.97v-17.191h-18.947v-60.62zM276.907 49.778h-46.197v77.811h46.197v-16.871h-25.174v-12.241h23.311v-16.871h-23.311v-14.689h25.174v-17.138zM354.648 73.408c0-4.826-1.224-9.11-3.672-12.853s-5.979-6.653-10.591-8.728c-4.613-2.076-10.023-3.114-16.233-3.114-5.18 0-9.527 0.364-13.039 1.091s-7.167 1.996-10.964 3.805v18.734c4.009-2.058 8.178-3.663 12.507-4.817s8.303-1.73 11.922-1.73c3.122 0 5.411 0.541 6.866 1.623s2.182 2.475 2.182 4.178c0 1.064-0.293 1.996-0.878 2.794s-1.526 1.606-2.821 2.422c-1.295 0.816-4.746 2.484-10.352 5.003-5.074 2.306-8.879 4.542-11.416 6.706s-4.417 4.648-5.642 7.451c-1.224 2.803-1.836 6.121-1.836 9.953 0 7.167 2.608 12.756 7.824 16.765s12.383 6.014 21.502 6.014c8.054 0 16.268-1.863 24.642-5.588l-6.44-16.233c-7.274 3.335-13.554 5.003-18.841 5.003-2.732 0-4.719-0.479-5.961-1.437s-1.863-2.147-1.863-3.566c0-1.526 0.789-2.892 2.368-4.098s5.863-3.406 12.853-6.6c6.706-3.016 11.363-6.254 13.971-9.713s3.912-7.815 3.912-13.066zM414.241 49.778h-21.023v60.62h-19v17.191h58.97v-17.191h-18.947v-60.62zM497.676 49.778l-3.832 14.583h-25.281l-3.938-14.583h-23.098l25.387 78.13h28.048l25.706-78.13h-22.992zM489.48 81.605l-3.353 12.773c-0.781 2.839-1.73 6.511-2.847 11.017s-1.854 7.735-2.209 9.686c-0.319-1.81-0.949-4.79-1.889-8.941s-3.025-12.33-6.254-24.535h16.552zM569.031 49.778h-21.023v60.62h-19v17.191h58.97v-17.191h-18.947v-60.62zM682.963 88.79c0-13.093-3.211-23.045-9.633-29.858s-15.825-10.219-28.208-10.219c-12.206 0-21.564 3.424-28.075 10.272s-9.766 16.818-9.766 29.911c0 12.951 3.238 22.841 9.713 29.671s15.887 10.245 28.234 10.245c12.383 0 21.768-3.388 28.155-10.165s9.58-16.729 9.58-29.858zM629.421 88.79c0-15.044 5.233-22.566 15.701-22.566 5.322 0 9.27 1.827 11.842 5.482s3.859 9.349 3.859 17.084c0 7.77-1.304 13.51-3.912 17.217s-6.502 5.562-11.682 5.562c-10.538 0-15.807-7.593-15.807-22.779z" />
<glyph unicode="&#xe919;" horiz-adv-x="853" d="M535.821 661.789l83.807 58.403c-25.972 30.414-59.454 54.228-98.269 68.774l-31.961-94.37c17.928-7.627 33.534-18.925 46.423-32.807z" />
<glyph unicode="&#xe91a;" horiz-adv-x="853" d="M311.813 635.443l-82.259 61.030c-21.199-33.684-33.784-73.209-36.131-115.616h101.256c1.946 19.785 7.812 38.233 17.134 54.585z" />
<glyph unicode="&#xe91b;" horiz-adv-x="853" d="M565.729 580.858h101.255c-2.348 42.406-14.938 81.932-36.133 115.616l-82.258-61.019c9.323-16.375 15.184-34.822 17.135-54.597z" />
<glyph unicode="&#xe91c;" horiz-adv-x="853" d="M371.008 694.597l-31.96 94.369c-38.813-14.541-72.3-38.361-98.27-68.777l83.803-58.4c12.894 13.883 28.499 25.175 46.426 32.808z" />
<glyph unicode="&#xe91d;" horiz-adv-x="853" d="M429.324 704.924c9.407 0 18.324-1.798 27.128-3.931l30.066 99.406c-18.367 5.313-37.266 9.145-57.193 9.145s-38.827-3.833-57.193-9.145l30.066-99.406c8.804 2.133 17.721 3.931 27.128 3.931z" />
<glyph unicode="&#xe91e;" horiz-adv-x="853" d="M623.346 257.134h-144.662l-96.438 94.174c-104.060 20.718-182.733 107.499-188.822 213.015h102.532c6.596-66.080 62.939-117.844 132.986-118.337h0.507c70.048 0 126.385 52.257 133.494 118.337h102.024c-5.080-92.203-65.989-169.619-150.249-201.186l108.626-106.004z" />
<glyph unicode="&#xe91f;" horiz-adv-x="853" d="M418.239 500.066c3.489-3.95 8.816-6.26 14.395-6.26 0.607 0 1.045 0.031 1.854 0.109 6.169 0.515 11.648 3.856 14.631 8.945l61.34 104.018c4.922 8.414 1.568 18.937-7.484 23.557-9.102 4.558-20.514 1.483-25.487-6.885l-48.057-81.538-37.725 42.26c-6.625 7.384-18.475 8.43-26.431 2.31-7.99-6.135-9.153-17.063-2.562-24.416l55.525-62.102z" />
<glyph unicode="&#xe920;" d="M85.333 960h853.333v-899.219c0-68.914-55.866-124.781-124.781-124.781h-728.553v1024z" />
<glyph unicode="&#xe921;" d="M227.102 127.589h23.524l-25.493-77.811h-24.748l-25.387 77.811h23.631l10.591-39.438c2.2-8.764 3.406-14.867 3.619-18.308 0.248 2.484 0.745 5.588 1.49 9.314s1.402 6.653 1.969 8.782l10.804 39.651zM315.647 49.778l-3.832 14.583h-25.281l-3.938-14.583h-23.098l25.387 78.13h28.048l25.706-78.13h-22.992zM307.451 81.605l-3.353 12.773c-0.781 2.839-1.73 6.511-2.847 11.017s-1.854 7.735-2.209 9.686c-0.319-1.81-0.949-4.79-1.889-8.941s-3.025-12.33-6.254-24.535h16.552zM360.284 49.778v77.811h21.023v-60.833h29.964v-16.978h-50.987zM502.051 127.589v-46.836c0-10.183-2.883-18.069-8.649-23.657s-14.077-8.383-24.935-8.383c-10.609 0-18.761 2.714-24.456 8.143s-8.542 13.235-8.542 23.418v47.315h21.129v-45.665c0-5.5 1.029-9.491 3.087-11.975s5.092-3.726 9.101-3.726c4.293 0 7.407 1.233 9.341 3.699s2.901 6.502 2.901 12.108v45.558h21.023zM565.954 49.778h-21.023v60.62h-19v17.191h58.97v-17.191h-18.947v-60.62zM649.39 49.778l-3.832 14.583h-25.281l-3.938-14.583h-23.098l25.387 78.13h28.048l25.706-78.13h-22.992zM641.194 81.605l-3.353 12.773c-0.781 2.839-1.73 6.511-2.847 11.017s-1.854 7.735-2.209 9.686c-0.319-1.81-0.949-4.79-1.889-8.941s-3.025-12.33-6.254-24.535h16.552zM720.744 49.778h-21.023v60.62h-19v17.191h58.97v-17.191h-18.947v-60.62zM834.676 88.79c0-13.093-3.211-23.045-9.633-29.858s-15.825-10.219-28.208-10.219c-12.206 0-21.564 3.424-28.075 10.272s-9.766 16.818-9.766 29.911c0 12.951 3.238 22.841 9.713 29.671s15.887 10.245 28.234 10.245c12.383 0 21.768-3.388 28.155-10.165s9.58-16.729 9.58-29.858zM781.135 88.79c0-15.044 5.233-22.566 15.701-22.566 5.322 0 9.27 1.827 11.842 5.482s3.859 9.349 3.859 17.084c0 7.77-1.304 13.51-3.912 17.217s-6.502 5.562-11.682 5.562c-10.538 0-15.807-7.593-15.807-22.779z" />
<glyph unicode="&#xe922;" d="M621.154 661.789l83.807 58.403c-25.972 30.414-59.454 54.228-98.269 68.774l-31.961-94.37c17.928-7.627 33.534-18.925 46.423-32.807z" />
<glyph unicode="&#xe923;" d="M397.146 635.443l-82.259 61.030c-21.199-33.684-33.784-73.209-36.131-115.616h101.256c1.946 19.785 7.812 38.233 17.134 54.585z" />
<glyph unicode="&#xe924;" d="M651.062 580.858h101.255c-2.348 42.406-14.938 81.932-36.133 115.616l-82.258-61.019c9.323-16.375 15.184-34.822 17.135-54.597z" />
<glyph unicode="&#xe925;" d="M456.341 694.597l-31.96 94.369c-38.813-14.541-72.3-38.361-98.27-68.777l83.803-58.4c12.894 13.883 28.499 25.175 46.426 32.808z" />
<glyph unicode="&#xe926;" d="M514.657 704.924c9.407 0 18.324-1.798 27.128-3.931l30.066 99.406c-18.367 5.313-37.266 9.145-57.193 9.145s-38.827-3.833-57.193-9.145l30.066-99.406c8.804 2.133 17.721 3.931 27.128 3.931z" />
<glyph unicode="&#xe927;" d="M708.679 257.134h-144.662l-96.438 94.174c-104.060 20.718-182.733 107.499-188.822 213.015h102.532c6.596-66.080 62.939-117.844 132.986-118.337h0.507c70.048 0 126.385 52.257 133.494 118.337h102.024c-5.080-92.203-65.989-169.619-150.249-201.186l108.626-106.004z" />
<glyph unicode="&#xe928;" d="M503.572 500.066c3.489-3.95 8.816-6.26 14.395-6.26 0.607 0 1.045 0.031 1.854 0.109 6.169 0.515 11.648 3.856 14.631 8.945l61.34 104.018c4.922 8.414 1.568 18.937-7.484 23.557-9.102 4.558-20.514 1.483-25.487-6.885l-48.057-81.538-37.725 42.26c-6.625 7.384-18.475 8.43-26.431 2.31-7.99-6.135-9.153-17.063-2.562-24.416l55.525-62.102z" />
<glyph unicode="&#xe929;" d="M85.333 960h853.333v-899.219c0-68.914-55.866-124.781-124.781-124.781h-728.553v1024z" />
<glyph unicode="&#xe92a;" d="M181.659 78.092v-28.314h-21.023v77.811h25.493c21.147 0 31.72-7.664 31.72-22.992 0-9.012-4.4-15.984-13.199-20.916l22.673-33.903h-23.844l-16.499 28.314h-5.322zM181.659 93.899h3.938c7.345 0 11.017 3.247 11.017 9.74 0 5.358-3.601 8.037-10.804 8.037h-4.151v-17.776zM293.834 49.778h-46.197v77.811h46.197v-16.871h-25.174v-12.241h23.311v-16.871h-23.311v-14.689h25.174v-17.138zM355.343 111.462c-5.003 0-8.906-2.049-11.709-6.147s-4.205-9.749-4.205-16.951c0-14.973 5.695-22.46 17.084-22.46 3.442 0 6.777 0.479 10.006 1.437s6.475 2.111 9.74 3.459v-17.776c-6.493-2.874-13.838-4.311-22.034-4.311-11.744 0-20.748 3.406-27.010 10.219s-9.394 16.658-9.394 29.538c0 8.054 1.517 15.133 4.55 21.236s7.398 10.795 13.093 14.077c5.695 3.282 12.392 4.923 20.091 4.923 8.409 0 16.446-1.827 24.11-5.482l-6.44-16.552c-2.874 1.348-5.748 2.484-8.622 3.406s-5.961 1.384-9.261 1.384zM450.86 49.778h-46.197v77.811h46.197v-16.871h-25.174v-12.241h23.311v-16.871h-23.311v-14.689h25.174v-17.138zM551.806 49.778h-27.569l-28.421 54.819h-0.479c0.674-8.622 1.011-15.204 1.011-19.745v-35.073h-18.628v77.811h27.463l28.314-54.074h0.319c-0.497 7.841-0.745 14.139-0.745 18.894v35.18h18.734v-77.811zM632.74 73.408c0-4.826-1.224-9.11-3.672-12.853s-5.979-6.653-10.591-8.728c-4.613-2.076-10.023-3.114-16.233-3.114-5.18 0-9.527 0.364-13.039 1.091s-7.167 1.996-10.964 3.805v18.734c4.009-2.058 8.178-3.663 12.507-4.817s8.303-1.73 11.922-1.73c3.122 0 5.411 0.541 6.866 1.623s2.182 2.475 2.182 4.178c0 1.064-0.293 1.996-0.878 2.794s-1.526 1.606-2.821 2.422c-1.295 0.816-4.746 2.484-10.352 5.003-5.074 2.306-8.879 4.542-11.416 6.706s-4.417 4.648-5.642 7.451c-1.224 2.803-1.836 6.121-1.836 9.953 0 7.167 2.608 12.756 7.824 16.765s12.383 6.014 21.502 6.014c8.054 0 16.268-1.863 24.642-5.588l-6.44-16.233c-7.274 3.335-13.554 5.003-18.841 5.003-2.732 0-4.719-0.479-5.961-1.437s-1.863-2.147-1.863-3.566c0-1.526 0.789-2.892 2.368-4.098s5.863-3.406 12.853-6.6c6.706-3.016 11.363-6.254 13.971-9.713s3.912-7.815 3.912-13.066zM658.004 49.778v77.811h21.129v-77.811h-21.129zM743.515 49.778h-21.023v60.62h-19v17.191h58.97v-17.191h-18.947v-60.62zM857.447 88.79c0-13.093-3.211-23.045-9.633-29.858s-15.825-10.219-28.208-10.219c-12.206 0-21.564 3.424-28.075 10.272s-9.766 16.818-9.766 29.911c0 12.951 3.238 22.841 9.713 29.671s15.887 10.245 28.234 10.245c12.383 0 21.768-3.388 28.155-10.165s9.58-16.729 9.58-29.858zM803.906 88.79c0-15.044 5.233-22.566 15.701-22.566 5.322 0 9.27 1.827 11.842 5.482s3.859 9.349 3.859 17.084c0 7.77-1.304 13.51-3.912 17.217s-6.502 5.562-11.682 5.562c-10.538 0-15.807-7.593-15.807-22.779z" />
<glyph unicode="&#xe92b;" d="M621.154 661.789l83.807 58.403c-25.972 30.414-59.454 54.228-98.269 68.774l-31.961-94.37c17.928-7.627 33.534-18.925 46.423-32.807z" />
<glyph unicode="&#xe92c;" d="M397.146 635.443l-82.259 61.030c-21.199-33.684-33.784-73.209-36.131-115.616h101.256c1.946 19.785 7.812 38.233 17.134 54.585z" />
<glyph unicode="&#xe92d;" d="M651.062 580.858h101.255c-2.348 42.406-14.938 81.932-36.133 115.616l-82.258-61.019c9.323-16.375 15.184-34.822 17.135-54.597z" />
<glyph unicode="&#xe92e;" d="M456.341 694.597l-31.96 94.369c-38.813-14.541-72.3-38.361-98.27-68.777l83.803-58.4c12.894 13.883 28.499 25.175 46.426 32.808z" />
<glyph unicode="&#xe92f;" d="M514.657 704.924c9.407 0 18.324-1.798 27.128-3.931l30.066 99.406c-18.367 5.313-37.266 9.145-57.193 9.145s-38.827-3.833-57.193-9.145l30.066-99.406c8.804 2.133 17.721 3.931 27.128 3.931z" />
<glyph unicode="&#xe930;" d="M708.679 257.134h-144.662l-96.438 94.174c-104.060 20.718-182.733 107.499-188.822 213.015h102.532c6.596-66.080 62.939-117.844 132.986-118.337h0.507c70.048 0 126.385 52.257 133.494 118.337h102.024c-5.080-92.203-65.989-169.619-150.249-201.186l108.626-106.004z" />
<glyph unicode="&#xe931;" d="M503.572 500.066c3.489-3.95 8.816-6.26 14.395-6.26 0.607 0 1.045 0.031 1.854 0.109 6.169 0.515 11.648 3.856 14.631 8.945l61.34 104.018c4.922 8.414 1.568 18.937-7.484 23.557-9.102 4.558-20.514 1.483-25.487-6.885l-48.057-81.538-37.725 42.26c-6.625 7.384-18.475 8.43-26.431 2.31-7.99-6.135-9.153-17.063-2.562-24.416l55.525-62.102z" />
<glyph unicode="&#xe932;" d="M684.785 585.139l130.015 92.732c-40.291 48.291-92.235 86.102-152.45 109.198l-49.583-149.84c27.813-12.11 52.024-30.048 72.018-52.090z" />
<glyph unicode="&#xe933;" d="M337.267 543.308l-127.614 96.903c-32.888-53.482-52.411-116.24-56.052-183.572h157.085c3.019 31.415 12.119 60.706 26.582 86.669z" />
<glyph unicode="&#xe934;" d="M731.183 456.639h157.084c-3.642 67.332-23.175 130.090-56.055 183.572l-127.612-96.885c14.464-26 23.555-55.29 26.583-86.687z" />
<glyph unicode="&#xe935;" d="M429.1 637.231l-49.581 149.837c-60.212-23.088-112.163-60.909-152.452-109.202l130.009-92.727c20.003 22.043 44.212 39.973 72.024 52.092z" />
<glyph unicode="&#xe936;" d="M519.569 653.629c14.593 0 28.427-2.855 42.085-6.241l46.643 157.835c-28.493 8.435-57.813 14.521-88.728 14.521s-60.234-6.085-88.728-14.521l46.643-157.835c13.658 3.387 27.492 6.241 42.085 6.241z" />
<glyph unicode="&#xe937;" d="M820.568-57.364h-224.423l-149.61 149.528c-161.434 32.895-283.485 170.684-292.931 338.221h159.064c10.233-104.92 97.641-187.11 206.31-187.893h0.787c108.669 0 196.069 82.973 207.097 187.893h158.277c-7.88-146.398-102.372-269.318-233.090-319.438l168.519-168.31z" />
<glyph unicode="&#xe938;" d="M636.96 472.037l-162.132 105.412c-9.619 5.22-20.635 2.89-20.635-14.087v-207.564c0-16.856 11.817-19.858 20.635-14.078l162.132 105.403c9.343 6.605 9.085 18.843 0 24.915v0z" />
<glyph unicode="&#xe939;" glyph-name="icon-manual" d="M467.767 672.701h-124.254c-6.166 0-11.207 5.090-11.207 11.207 0 6.166 5.041 11.207 11.207 11.207h124.254c6.166 0 11.207-5.041 11.207-11.207 0-6.117-5.041-11.207-11.207-11.207zM603.066 604.266h-197.417c-6.166 0-11.207 5.041-11.207 11.207 0 6.117 5.041 11.207 11.207 11.207h197.417c6.215 0 11.207-5.090 11.207-11.207 0-6.166-4.992-11.207-11.207-11.207zM504.329 535.826h-98.708c-6.166 0-11.158 4.992-11.158 11.207 0 6.166 4.992 11.207 11.158 11.207h98.708c6.215 0 11.207-5.041 11.207-11.207 0-6.215-4.992-11.207-11.207-11.207zM504.329 467.342h-98.708c-6.166 0-11.158 5.041-11.158 11.207s4.992 11.207 11.158 11.207h98.708c6.215 0 11.207-5.041 11.207-11.207s-4.992-11.207-11.207-11.207zM462.178 398.907h-56.524c-6.166 0-11.207 5.041-11.207 11.207s5.041 11.256 11.207 11.256h56.524c6.166 0 11.207-5.090 11.207-11.256s-5.041-11.207-11.207-11.207zM360.382 604.266h-16.884c-6.166 0-11.158 5.041-11.158 11.207 0 6.117 4.992 11.207 11.158 11.207h16.884c6.166 0 11.207-5.090 11.207-11.207 0-6.166-5.041-11.207-11.207-11.207zM360.382 535.826h-16.884c-6.166 0-11.158 4.992-11.158 11.207 0 6.166 4.992 11.207 11.158 11.207h16.884c6.166 0 11.207-5.041 11.207-11.207 0-6.215-5.041-11.207-11.207-11.207zM360.382 467.342h-16.884c-6.166 0-11.158 5.041-11.158 11.207s4.992 11.207 11.158 11.207h16.884c6.166 0 11.207-5.041 11.207-11.207s-5.041-11.207-11.207-11.207zM360.382 398.907h-16.884c-6.166 0-11.158 5.041-11.158 11.207s4.992 11.256 11.158 11.256h16.884c6.166 0 11.207-5.090 11.207-11.256s-5.041-11.207-11.207-11.207zM462.178 330.467h-56.524c-6.166 0-11.207 5.041-11.207 11.207s5.041 11.207 11.207 11.207h56.524c6.166 0 11.207-5.041 11.207-11.207s-5.041-11.207-11.207-11.207zM360.382 330.467h-16.884c-6.166 0-11.158 5.041-11.158 11.207s4.992 11.207 11.158 11.207h16.884c6.166 0 11.207-5.041 11.207-11.207s-5.041-11.207-11.207-11.207zM727.467 144.272c0-1.566-0.832-2.692-1.272-3.083-0.489-0.538-1.566-1.321-3.132-1.321h-194.725c-2.447 0-4.453 1.958-4.453 4.355v56.915c0 2.447 2.006 4.404 4.453 4.404h194.725c2.398 0 4.404-1.958 4.404-4.404v-56.866zM514.39 418.129c0 3.034 1.272 5.97 3.426 8.124 2.153 2.202 5.041 3.377 8.075 3.377h0.049c6.313 0 11.452-5.139 11.452-11.5v-51.581c0-6.215 5.041-11.256 11.207-11.256 6.215 0 11.207 5.041 11.207 11.256v156.798c0 6.46 5.285 11.745 11.696 11.745 3.181 0 6.117-1.223 8.368-3.475 2.202-2.202 3.475-5.139 3.475-8.319v-121.122c-0.049-0.245-0.049-0.44-0.049-0.734h0.049c0-6.166 4.992-11.207 11.158-11.207 6.215 0 11.207 5.041 11.207 11.207 0 6.46 5.236 11.696 11.745 11.745 3.132 0 6.068-1.175 8.319-3.426 2.202-2.251 3.426-5.187 3.426-8.319v-5.334c0-6.117 5.041-11.158 11.207-11.158s11.207 5.041 11.207 11.158c0 6.46 5.285 11.794 11.696 11.794 6.46 0 11.794-5.285 11.794-11.794v-10.62c0.049-6.166 5.041-11.207 11.158-11.207h0.098c6.117 0.049 11.207 5.041 11.158 11.256 0 3.132 1.175 6.068 3.426 8.271 2.251 2.251 5.139 3.426 8.319 3.426 6.509 0 11.696-5.236 11.696-11.696v-60.634c0-50.602-10.032-83.831-14.877-96.898h-153.030c-9.445 9.2-38.465 42.234-38.465 96.946l-0.196 93.178zM729.523 227.075c5.824 17.862 13.849 50.798 13.849 97.827l0.049 60.634c0 18.743-15.318 34.11-34.159 34.11h-0.049c-6.215 0-12.137-1.615-17.373-4.747-6.117 9.249-16.59 15.367-28.531 15.367-7.439 0-14.339-2.398-20.016-6.509-0.489 0.636-1.077 1.223-1.664 1.811-6.509 6.46-15.073 10.032-24.175 10.032-4.16 0-8.075-0.783-11.745-2.104v89.802c0.049 9.2-3.524 17.716-9.934 24.175-6.509 6.46-15.073 9.983-24.273 10.032-18.792-0.049-34.11-15.318-34.11-34.159v-73.309c-3.572 1.272-7.439 1.958-11.452 1.958h-0.049c-9.054 0-17.569-3.475-23.931-9.886-6.411-6.411-9.934-14.926-9.934-24.029l0.147-93.178c0-45.61 17.618-78.35 31.761-97.387-12.675-2.104-22.463-13.066-22.463-26.378v-56.915c0-14.779 12.039-26.818 26.867-26.818l194.725 0.049c7.194 0 13.898 2.789 18.988 7.83 4.992 5.090 7.83 11.843 7.83 18.988v56.866c0 12.577-8.76 23.050-20.358 25.937zM588.444 743.289l48.155-48.155h-48.155v48.155zM499.621 275.538h-204.121v483.558h270.579v-75.169c0-6.166 5.041-11.207 11.158-11.207h75.267v-244.25c3.377 1.175 6.998 1.811 10.815 1.811 4.062 0 7.928-0.734 11.598-2.055v255.702c0 0.734-0.098 1.468-0.245 2.153-0.196 0.979-0.587 1.86-0.979 2.741-0.098 0.245-0.245 0.44-0.343 0.636-0.489 0.832-1.028 1.713-1.762 2.398l-86.376 86.376c-0.734 0.734-1.566 1.272-2.349 1.762-0.245 0.147-0.489 0.245-0.734 0.392-0.832 0.392-1.762 0.734-2.692 0.93-0.685 0.147-1.468 0.196-2.202 0.196h-292.944c-6.215 0-11.207-4.943-11.207-11.158v-505.972c0-6.166 4.992-11.207 11.207-11.207h224.137c-3.23 6.753-6.313 14.192-8.809 22.365zM705.626 172.661c0-6.509-5.334-11.794-11.892-11.794-6.509 0-11.794 5.285-11.794 11.794 0 6.607 5.285 11.892 11.794 11.892 6.558 0 11.892-5.285 11.892-11.892z" />
<glyph unicode="&#xe93a;" glyph-name="icon-table" d="M175.485 545.129v25.6h664.998v-25.6zM233.311 602.955c-7.069 0-12.8 5.731-12.8 12.8s5.731 12.8 12.8 12.8h57.826c7.069 0 12.8-5.731 12.8-12.8s-5.731-12.8-12.8-12.8h-57.826zM399.561 602.955c-7.069 0-12.8 5.731-12.8 12.8s5.731 12.8 12.8 12.8h57.826c7.069 0 12.8-5.731 12.8-12.8s-5.731-12.8-12.8-12.8h-57.826zM558.582 602.955c-7.069 0-12.8 5.731-12.8 12.8s5.731 12.8 12.8 12.8h57.826c7.069 0 12.8-5.731 12.8-12.8s-5.731-12.8-12.8-12.8h-57.826zM724.831 602.955c-7.069 0-12.8 5.731-12.8 12.8s5.731 12.8 12.8 12.8h57.826c7.069 0 12.8-5.731 12.8-12.8s-5.731-12.8-12.8-12.8h-57.826zM175.485 458.391v25.6h664.998v-25.6zM175.485 371.652v25.6h664.998v-25.6zM175.485 284.913v25.6h664.998v-25.6zM336.163 557.929h25.6v-346.955h-25.6zM495.184 557.929h25.6v-346.955h-25.6zM654.205 557.929h25.6v-346.955h-25.6zM175.485 198.174c-7.069 0-12.8 5.731-12.8 12.8v462.607c0 7.069 5.731 12.8 12.8 12.8h664.998c7.069 0 12.8-5.731 12.8-12.8v-462.607c0-7.069-5.731-12.8-12.8-12.8h-664.998zM188.285 223.774h639.398v437.007h-639.398v-437.007z" />
<glyph unicode="&#xe93b;" glyph-name="icon-grid" d="M177.085 554.302c-7.069 0-12.8 5.731-12.8 12.8v121.946c0 7.069 5.731 12.8 12.8 12.8h182.92c7.069 0 12.8-5.731 12.8-12.8v-121.946c0-7.069-5.731-12.8-12.8-12.8h-182.92zM189.885 579.902h157.32v96.346h-157.32v-96.346zM664.871 554.302c-7.069 0-12.8 5.731-12.8 12.8v121.946c0 7.069 5.731 12.8 12.8 12.8h182.92c7.069 0 12.8-5.731 12.8-12.8v-121.946c0-7.069-5.731-12.8-12.8-12.8h-182.92zM834.99 579.902v96.346h-157.32v-96.346h157.32zM177.085 371.382c-7.069 0-12.8 5.731-12.8 12.8v121.946c0 7.069 5.731 12.8 12.8 12.8h182.92c7.069 0 12.8-5.731 12.8-12.8v-121.946c0-7.069-5.731-12.8-12.8-12.8h-182.92zM189.885 396.982h157.32v96.346h-157.32v-96.346zM664.871 371.382c-7.069 0-12.8 5.731-12.8 12.8v121.946c0 7.069 5.731 12.8 12.8 12.8h182.92c7.069 0 12.8-5.731 12.8-12.8v-121.946c0-7.069-5.731-12.8-12.8-12.8h-182.92zM834.99 396.982v96.346h-157.32v-96.346h157.32zM420.978 554.302c-7.069 0-12.8 5.731-12.8 12.8v121.946c0 7.069 5.731 12.8 12.8 12.8h182.92c7.069 0 12.8-5.731 12.8-12.8v-121.946c0-7.069-5.731-12.8-12.8-12.8h-182.92zM433.778 579.902h157.32v96.346h-157.32v-96.346zM420.978 371.382c-7.069 0-12.8 5.731-12.8 12.8v121.946c0 7.069 5.731 12.8 12.8 12.8h182.92c7.069 0 12.8-5.731 12.8-12.8v-121.946c0-7.069-5.731-12.8-12.8-12.8h-182.92zM591.097 396.982v96.346h-157.32v-96.346h157.32zM177.085 188.463c-7.069 0-12.8 5.731-12.8 12.8v121.946c0 7.069 5.731 12.8 12.8 12.8h182.92c7.069 0 12.8-5.731 12.8-12.8v-121.946c0-7.069-5.731-12.8-12.8-12.8h-182.92zM189.885 214.063h157.32v96.346h-157.32v-96.346zM664.871 188.463c-7.069 0-12.8 5.731-12.8 12.8v121.946c0 7.069 5.731 12.8 12.8 12.8h182.92c7.069 0 12.8-5.731 12.8-12.8v-121.946c0-7.069-5.731-12.8-12.8-12.8h-182.92zM834.99 214.063v96.346h-157.32v-96.346h157.32zM420.978 188.463c-7.069 0-12.8 5.731-12.8 12.8v121.946c0 7.069 5.731 12.8 12.8 12.8h182.92c7.069 0 12.8-5.731 12.8-12.8v-121.946c0-7.069-5.731-12.8-12.8-12.8h-182.92zM591.097 214.063v96.346h-157.32v-96.346h157.32z" />
<glyph unicode="&#xe93c;" glyph-name="icon-info-round" d="M840.533 448c0 181.442-147.091 328.533-328.533 328.533s-328.533-147.091-328.533-328.533c0-181.442 147.091-328.533 328.533-328.533s328.533 147.091 328.533 328.533zM866.133 448c0-195.581-158.553-354.133-354.133-354.133s-354.133 158.553-354.133 354.133c0 195.581 158.553 354.133 354.133 354.133s354.133-158.553 354.133-354.133zM566.613 310.613c7.069 0 12.8-5.731 12.8-12.8v-54.613c0-7.069-5.731-12.8-12.8-12.8h-109.227c-7.069 0-12.8 5.731-12.8 12.8v54.613c0 7.069 5.731 12.8 12.8 12.8h14.507v138.24h-14.507c-7.069 0-12.8 5.731-12.8 12.8v40.96c0 6.257 4.524 11.597 10.696 12.626l81.92 13.653c7.802 1.3 14.904-4.716 14.904-12.626v-205.653h14.507zM539.307 285.013c-7.069 0-12.8 5.731-12.8 12.8v203.343l-56.32-9.387v-17.317h14.507c7.069 0 12.8-5.731 12.8-12.8v-163.84c0-7.069-5.731-12.8-12.8-12.8h-14.507v-29.013h83.627v29.013h-14.507zM540.16 611.84c0 15.554-12.606 28.16-28.16 28.16s-28.16-12.606-28.16-28.16c0-15.554 12.606-28.16 28.16-28.16s28.16 12.606 28.16 28.16zM565.76 611.84c0-29.693-24.067-53.76-53.76-53.76s-53.76 24.067-53.76 53.76c0 29.693 24.067 53.76 53.76 53.76s53.76-24.067 53.76-53.76z" />
</font>
</defs>
</svg>
